<?xml version="1.0" encoding="UTF-8" standalone="no"?>
<svg
   version="1.1"
   id="svg2"
   xml:space="preserve"
   width="500"
   height="500"
   viewBox="0 0 500 500"
   sodipodi:docname="Paisley-El1-drop1.svg"
   inkscape:version="1.1.1 (3bf5ae0d25, 2021-09-20)"
   inkscape:export-filename="C:\Users\Gareth\Documents\GitHub\Paisley\Paisley-El1.png"
   inkscape:export-xdpi="96"
   inkscape:export-ydpi="96"
   xmlns:inkscape="http://www.inkscape.org/namespaces/inkscape"
   xmlns:sodipodi="http://sodipodi.sourceforge.net/DTD/sodipodi-0.dtd"
   xmlns="http://www.w3.org/2000/svg"
   xmlns:svg="http://www.w3.org/2000/svg"
   xmlns:rdf="http://www.w3.org/1999/02/22-rdf-syntax-ns#"
   xmlns:cc="http://creativecommons.org/ns#"
   xmlns:dc="http://purl.org/dc/elements/1.1/">
     
     
     <path
       d="m 284.3452,331.08727 c -1.89548,-0.15664 -3.51481,0.42518 -4.85805,1.77609 0.66414,0.62685 5.46997,5.14908 4.16406,4.95508 7.05205,1.05963 14.15629,17.04428 17.298,22.5665 4.72376,8.30575 8.58932,17.20104 10.95493,26.46938 0.45507,1.78355 4.35059,18.49949 0.2835,17.71592 -14.46971,-2.78346 -21.97698,-27.05144 -26.95448,-38.48398 -2.29844,-5.27593 -4.67152,-10.5594 -5.90279,-16.20104 -0.26878,-1.21635 -0.47014,-8.76839 -0.70149,-8.84304 -1.99247,-0.61188 -3.97749,-1.2313 -5.97742,-1.85069 -4.54466,14.7235 25.15597,85.19165 44.55097,70.73683 11.46239,-8.53707 -2.80586,-38.23027 -7.40276,-47.32701 -4.4178,-8.73857 -14.13397,-30.34991 -25.45454,-31.51404 z M 365.08922,140.6747 c -10.29826,-26.60371 -59.58043,28.23803 -52.75973,47.68522 5.38047,15.46227 61.6923,-24.62616 52.75973,-47.68522 z m -44.45401,37.5736 c 3.65663,-9.26842 9.02217,-17.93235 15.55927,-25.43211 4.05959,-4.66405 24.32769,-22.37997 23.09639,-5.17901 -0.80596,11.26836 -11.08176,19.66368 -19.34276,26.08139 -4.73865,3.68645 -14.49957,12.76827 -21.28298,12.11906 -0.321,-2.55965 1.02981,-5.31329 1.97008,-7.58933 z m -59.41622,40.21528 c -17.67113,-7.79833 -40.38692,1.27609 -43.14803,21.90983 -2.53725,19.01437 16.05923,35.14081 32.51399,40.37946 15.60405,4.97001 37.29749,-0.8582 39.52875,-19.63376 2.14172,-17.90249 -13.49219,-35.84976 -28.89471,-42.65553 z m 9.82059,55.9984 c -28.4395,11.18626 -68.12489,-37.26014 -31.40207,-51.12539 25.9545,-9.8057 63.58031,38.45412 31.40207,51.12539 z M 133.93155,225.42606 c -15.76823,-4.45512 -37.618385,-9.94748 -51.334392,2.53722 -17.283069,15.73095 10.626581,26.20078 22.424752,27.81265 16.16369,2.21637 36.16316,1.87312 51.38661,-4.86551 22.85007,-10.11912 -15.54434,-23.53667 -22.47697,-25.48436 z M 118.53646,250 c -5.70882,-0.0673 -41.028738,-2.12683 -33.066266,-15.06677 7.559477,-12.2832 29.364886,-7.40277 40.230206,-4.7088 1.81341,0.44764 32.4991,11.0594 30.55887,12.8952 -7.81322,7.44751 -28.04397,6.99977 -37.72281,6.88037 z m 77.2366,-58.84911 c -0.89545,-0.55218 -6.06696,-3.72378 -5.30579,-3.84314 -6.68638,1.05217 -17.4025,-12.21609 -21.49198,-16.2309 -7.65648,-7.52219 -14.52942,-15.96223 -19.87254,-25.28286 -1.41791,-2.48504 -10.1863,-17.25328 -6.66402,-19.84275 5.55954,-4.08195 19.20844,8.76839 22.477,12.07431 6.2685,6.31324 11.58175,13.51455 17.02193,20.53674 3.91035,5.05955 7.95501,10.11913 10.68626,15.96223 0.51489,1.09699 2.23872,8.08933 2.52229,8.10422 2.08201,0.14893 4.17152,0.29121 6.23864,0.43268 1.16416,-16.72347 -54.41636,-83.221565 -65.25936,-59.73714 -9.2236,19.99196 50.34937,83.01256 59.64757,67.82643 z m 60.92367,-28.90961 c 5.0745,-4.45512 6.61177,-12.93248 7.83561,-19.18604 3.29096,-16.58908 6.50724,-38.42427 -2.82082,-53.610402 -3.96256,-6.455061 -11.1564,-12.880266 -19.32779,-10.104229 -9.08185,3.089496 -11.33554,12.67127 -11.80568,21.148661 -0.96266,17.35771 2.58951,35.14085 9.78331,50.95379 2.41786,5.49986 8.71618,17.47714 16.33537,10.79822 z M 237.21222,103.2877 c 0.25371,-5.850604 0.54474,-17.111463 8.66393,-17.827882 6.32817,-0.567136 11.037,8.15654 12.73098,13.044408 4.91033,14.216074 1.86558,33.297584 -1.67159,47.528544 -0.82091,3.29096 -1.73133,8.50725 -4.41033,10.93997 -1.85069,1.68655 -5.75354,-7.74604 -6.2461,-8.84303 -6.15657,-13.88765 -9.76838,-29.61109 -9.06689,-44.84201 z m 133.21265,250.881 c 5.82075,3.15664 13.89511,5.10436 20.38003,3.11185 8.69379,-2.67157 8.89528,-12.67873 4.63419,-19.27554 -9.08185,-14.08175 -27.89475,-24.13366 -42.9391,-30.25291 -5.64907,-2.29847 -14.35782,-6.58935 -20.32778,-4.09691 -5.72368,2.3134 -3.38796,8.79828 -1.14924,12.70859 8.50725,14.85035 24.4322,29.67831 39.4019,37.80492 z m -26.82763,-42.49133 c 11.28329,3.75363 22.0218,9.40271 31.61854,16.40251 3.87302,2.82082 26.72312,22.72325 10.72358,23.17846 -12.33549,0.35839 -23.14857,-9.79077 -31.40211,-17.7831 -6.2461,-6.02221 -16.9025,-14.67121 -19.16362,-23.62617 2.76111,-0.23128 5.68643,0.95517 8.22361,1.8283 z m -157.22688,-9.13406 c 1.17905,0.96263 -16.82786,16.70843 -19.25319,18.59648 -8.49232,6.55206 -17.79799,12.21606 -27.7604,16.23087 -2.65668,1.07463 -18.47709,7.75354 -20.55171,3.90288 -2.88046,-5.2909 9.37288,-16.08909 12.49224,-18.64873 7.27591,-5.9625 15.58909,-10.51462 23.70827,-15.18613 5.35061,-3.08204 10.6564,-6.29832 16.46222,-8.4774 3.24614,-1.22384 7.05206,-2.42529 10.55191,-1.69398 0.99999,-0.94027 1.08956,-5.20879 1.38055,-6.6192 -16.40997,-3.41781 -89.855622,42.5809 -68.06522,56.51336 18.5592,11.88021 89.08707,-38.58848 75.31135,-49.84191 -1.42538,1.73873 -2.85068,3.485 -4.27602,5.22376 z m 35.96165,47.27476 c -5.20132,2.48504 -8.31318,9.1341 -10.64147,14.02197 -7.02963,14.72349 -15.17867,35.02892 -10.64151,51.4986 5.32076,19.31287 24.69337,17.76817 30.52901,-0.17907 5.34311,-16.4025 6.20878,-34.55871 3.082,-51.49853 -0.96263,-5.53711 -3.84317,-17.88752 -12.32803,-13.84286 z m 4.07452,59.03566 c -1.45516,5.16404 -3.07453,12.25338 -8.83556,14.24585 -6.29085,2.17908 -9.45496,-6.73113 -10.42509,-11.23846 -3.08203,-14.24586 4.53716,-32.23046 10.56687,-44.87187 1.65669,-3.47006 3.49242,-7.46248 6.29835,-10.19376 2.79096,-2.71633 3.82074,7.05951 4.09688,8.61917 2.48504,14.216 2.24622,29.50663 -1.70145,43.43907 z M 336.4333,244.59718 c 3.12678,-6.05207 20.29792,-6.85802 26.02167,-7.7834 11.20861,-1.80591 22.77547,-2.31333 34.05125,-0.7686 2.01487,0.26878 19.75318,2.94021 17.52939,6.89531 -7.73862,13.72347 -36.43183,11.4176 -49.36427,11.76831 -6.40285,0.17136 -12.88027,0.44014 -19.19355,-0.81338 -1.20145,-0.23128 -7.85797,-2.96261 -8.04451,-2.75368 l -4.03723,4.7909 c 7.6938,6.48492 20.08157,5.88793 29.48424,5.58193 13.61161,-0.028 28.41714,0.0824 41.35705,-4.56698 10.41016,-3.73123 26.11867,-16.72343 8.70871,-23.85755 -16.85775,-6.89534 -37.87206,-5.5969 -55.34916,-2.27608 -5.91032,0.014 -31.87228,4.90283 -27.40969,15.80552 0.97759,-0.40275 6.58938,-2.69394 6.2461,-2.0223 z m 56.04319,138.60801 c 21.59641,2.06712 42.67789,-14.63392 38.54373,-37.91681 -3.31339,-18.60395 -20.70096,-32.42449 -35.48409,-42.27493 -16.05927,-10.70123 -33.76026,-19.20844 -51.91649,-25.71568 9.05202,2.23126 18.1338,4.05955 27.43208,4.91772 23.80531,2.18651 48.57325,0.0897 69.49059,-12.33545 16.41741,-9.76091 33.49905,-26.64852 21.55159,-46.54345 -9.7833,-16.28315 -31.29761,-19.49201 -48.6031,-20.52185 -23.12618,-1.39545 -46.62556,-0.68653 -68.79657,6.62667 28.12608,-19.58151 70.60997,-73.72179 28.33504,-101.36277 -36.53626,-23.902307 -69.78159,31.43936 -82.41558,58.10284 9.95495,-36.34972 7.41023,-112.011771 -40.80484,-120.862267 -22.99189,-4.216304 -43.66292,8.805676 -49.28967,31.357286 -6.14907,24.715761 0.32099,52.364201 8.00726,76.005331 -10.3803,-22.50679 -25.96193,-44.88679 -47.31209,-58.19984 -14.86524,-9.26092 -41.81972,-20.297924 -56.46111,-4.895403 -17.223394,18.126383 -3.79838,44.670403 7.52962,61.886333 13.17876,20.04421 28.26789,38.87201 48.43896,52.30449 -33.28265,-11.11908 -105.303,-18.70098 -116.399717,27.79772 -13.230977,55.5283 61.431127,56.9835 96.758497,52.52091 -20.46213,8.18633 -40.77502,20.17857 -53.991034,38.25266 -10.074338,13.79065 -22.335184,37.37954 -8.313182,52.63284 15.566699,16.93983 40.767486,9.07439 58.617726,0.85821 19.52187,-8.97735 38.46163,-19.75318 53.99101,-34.76771 -15.47713,30.56633 -29.32006,94.63917 6.9998,116.80268 17.04432,10.40273 39.83472,6.70877 51.52093,-9.66388 12.84294,-17.9771 14.46232,-43.09582 14.2086,-64.43105 5.43269,17.32043 13.48469,34.58857 26.55146,47.50612 10.76836,10.64897 30.07376,24.5889 45.93899,16.8055 33.74536,-16.56668 7.1192,-72.81883 -5.38039,-95.34055 17.04425,14.29064 38.55112,28.29768 61.25198,30.45433 z M 292.80017,177.89752 c 3.85066,-9.49967 8.57442,-18.67109 13.91007,-27.41713 9.48485,-15.54434 23.00682,-35.1408 41.64062,-40.2526 15.58913,-4.26852 32.20806,7.98487 35.06617,23.46206 2.70889,14.67125 -5.13415,29.72306 -13.4399,41.25999 -8.69382,12.06685 -19.73826,22.81282 -32.19313,30.96929 -4.81327,3.14921 -9.93256,5.97003 -15.3951,7.80576 -3.88795,1.29845 -8.28332,0.49999 -6.31324,5.79835 -6.49985,-15.40255 -18.70098,-27.11119 -34.4095,-32.90205 2.58204,-3.63424 2.08205,-3.88049 6.16403,-2.52232 3.8581,1.28355 3.63424,-2.89543 4.96998,-6.20135 z m 0.59699,114.81023 c -23.98434,25.49929 -64.96826,30.89465 -88.75867,1.95516 -20.11139,-24.48441 -20.93971,-65.68468 2.87303,-88.11693 22.46208,-21.16356 64.15491,-24.65601 88.13932,-4.20881 28.15594,23.99931 20.80542,65.84889 -2.25368,90.37058 z M 126.3944,160.02488 c -10.43995,-14.75328 -25.84254,-34.00646 -22.6859,-53.37908 3.44767,-21.088913 24.33512,-19.454647 39.85707,-13.335403 21.46956,8.454933 37.10343,25.066433 49.16282,44.342013 6.03717,9.64899 10.67133,19.87258 14.9772,30.3723 2.06712,5.06701 4.59687,10.82058 4.24613,16.42487 0.86566,0.82838 5.44761,0.33606 6.73863,0.41771 0.17136,-2.7014 -0.23865,-5.41772 -0.86567,-8.05197 1.04477,2.29097 2.12683,4.54465 3.29846,6.76841 4.23116,-2.22376 6.58184,-1.79097 4.33566,-6.39527 -2.87304,-5.873 -5.36551,-11.94 -7.60427,-18.0816 -5.08193,-13.85036 -9.0221,-28.23804 -11.19371,-42.84957 -3.88795,-26.11867 -1.93276,-61.729581 31.41703,-64.71458 32.33488,-2.895463 45.49872,32.528949 48.99117,58.75951 1.9253,14.41754 1.82084,29.23057 -0.59699,43.58089 -1.08209,6.47745 -2.66411,12.93248 -5.11179,19.05172 -1.1642,2.90286 -7.09684,10.58176 -4.38795,12.11156 -31.96927,-9.18627 -71.99052,3.34321 -87.04983,34.40204 -1.07456,-1.01488 -8.02962,-5.7685 -7.72362,-6.51471 0.32099,-0.74627 2.01483,-3.46263 1.77605,-4.20137 -7.71619,-3.25368 -15.07421,-7.33563 -21.93223,-12.14149 -14.04439,-9.84302 -25.79775,-22.59636 -35.64826,-36.56615 z m 1.43283,118.63848 c -21.2158,1.55223 -48.774742,2.09697 -66.483198,-11.82057 -13.342939,-10.48476 -15.163774,-31.2976 -5.372969,-44.87933 9.850448,-13.65633 28.663355,-17.90992 44.491227,-19.11886 17.53685,-1.35817 35.53634,0.73881 52.43142,5.53718 7.41765,2.1044 14.73088,4.76108 21.52923,8.41764 3.24617,1.7388 11.54442,9.84302 13.66379,6.77595 -6.35803,15.7682 -6.74609,33.75279 -1.9328,49.99116 -3.10439,-0.40324 -6.26849,-0.17136 -9.35049,0.29121 -0.61938,-0.2015 -0.58203,-3.65657 -1.17902,-3.73867 -4.20138,1.32084 -8.46246,2.41783 -12.74595,3.38796 -11.52203,2.60439 -23.26799,4.29091 -35.05124,5.15657 z m 204.66587,91.97502 c 7.72369,18.1786 25.02918,55.66259 2.9626,70.28162 -10.54444,6.97742 -23.7232,-1.42534 -32.24538,-7.82068 -10.57429,-7.93262 -18.41737,-18.3577 -24.29777,-30.14841 -6.98491,-14.05183 -11.64149,-29.51406 -13.80561,-45.05844 -0.88802,-5.68643 -2.0074,-11.49221 -1.8059,-17.2756 0.20149,-6.08193 0.14157,-4.9924 -5.776,-6.77595 -0.91042,3.02228 0.20149,4.44016 -2.98497,5.21625 -2.85814,0.68657 -1.97011,1.0746 -1.38055,3.83571 1.26863,5.98492 2.17155,12.03699 2.83575,18.11891 1.52234,13.73097 1.9104,27.66344 0.74621,41.44659 -2.11187,25.1784 -11.84293,60.34156 -44.55095,53.62536 -30.68572,-6.29835 -31.25285,-46.51359 -27.52162,-70.84129 2.20141,-14.36525 6.30578,-28.75292 12.96981,-41.70776 2.74614,-5.36554 5.99981,-10.61912 10.23105,-14.94735 2.06708,-2.11933 2.88796,-1.70891 0.91041,-4.10438 -2.69396,-3.24617 1.55216,-6.35799 3.49242,-9.63405 -3.2536,-1.9328 -4.94765,-4.76105 -7.20126,-1.15667 -3.79845,6.07446 -8.15654,11.80564 -12.9922,17.08907 -10.35044,11.34297 -22.81278,20.57403 -36.18554,28.0589 -18.17856,10.17134 -54.7671,32.30506 -72.639736,10.97729 -16.738326,-19.96957 14.984666,-52.75966 30.118556,-63.4012 13.96975,-9.82806 30.09615,-17.05175 46.54348,-21.58891 6.01471,-1.66412 12.14142,-3.47007 18.30542,-4.36559 4.14916,-0.59699 9.2236,1.63434 8.80571,-4.14166 11.95488,35.42438 49.80462,54.84924 84.87822,39.82721 34.44682,-14.73088 58.87151,-57.66999 45.15543,-94.29581 6.12675,-0.77614 1.7313,3.68645 5.91779,4.85061 6.63409,-3.97752 13.66379,-7.29087 20.94716,-9.89527 14.61896,-5.21625 30.11852,-7.49976 45.59572,-7.7684 20.28303,-0.35838 54.14025,-2.41783 66.5802,17.44725 14.93992,23.88741 -23.23814,42.25257 -41.16299,46.66288 -15.18616,3.70881 -31.23046,3.76106 -46.68527,1.97754 -11.96981,-1.37312 -32.53641,-3.44017 -42.20776,-11.49964 -1.44769,1.73127 -2.88796,3.4551 -4.32823,5.17894 2.985,2.485 6.65653,4.06702 10.2982,5.31325 0.40324,0.87313 -1.22385,4.41034 -1.48502,5.38047 -0.27614,0.99249 11.22357,4.26855 12.93991,4.9103 13.23847,4.88047 26.11121,10.89522 38.30491,17.99202 19.95464,11.59671 58.17745,38.11834 36.72283,64.85637 -18.50692,23.07399 -56.35658,0.22392 -73.96804,-12.63392 -11.39522,-8.32068 -22.09644,-18.00699 -30.76033,-29.17831 -3.23871,-4.17152 -6.22371,-8.61918 -8.44007,-13.43994 -2.5074,-5.4625 -2.4104,-4.4103 -8.23108,-2.64172 0.58203,1.87312 1.29099,3.69396 2.12676,5.46254 -1.51487,-1.17159 -5.44011,2.47008 -5.23115,4.45509 5.73864,4.29844 11.03701,9.18631 15.80552,14.52946 9.64149,10.84301 17.02936,23.49935 22.69336,36.82732" /></g></svg>
