<?xml version="1.0" encoding="UTF-8" standalone="no"?>
<svg
   version="1.1"
   id="svg2"
   xml:space="preserve"
   width="500"
   height="500"
   viewBox="0 0 500 500"
   sodipodi:docname="Paisley-MSizeDrop2.svg"
   inkscape:version="1.1.1 (3bf5ae0d25, 2021-09-20)"
   inkscape:export-filename="C:\Users\Gareth\Documents\GitHub\Paisley\Paisley-El1.png"
   inkscape:export-xdpi="96"
   inkscape:export-ydpi="96"
   xmlns:inkscape="http://www.inkscape.org/namespaces/inkscape"
   xmlns:sodipodi="http://sodipodi.sourceforge.net/DTD/sodipodi-0.dtd"
   xmlns="http://www.w3.org/2000/svg"
   xmlns:svg="http://www.w3.org/2000/svg"><defs
   id="defs9" />
   <sodipodi:namedview
   id="namedview7"
   pagecolor="#ffffff"
   bordercolor="#666666"
   borderopacity="1.0"
   inkscape:pageshadow="2"
   inkscape:pageopacity="0.0"
   inkscape:pagecheckerboard="0"
   showgrid="false"
   inkscape:zoom="0.77"
   inkscape:cx="-1.9480519"
   inkscape:cy="241.55844"
   inkscape:window-width="1920"
   inkscape:window-height="974"
   inkscape:window-x="-11"
   inkscape:window-y="-11"
   inkscape:window-maximized="1"
   inkscape:current-layer="svg2" />

     

     

     
     
     
       
       
       
       <path
   d="m 195.25332,397.82247 c 7.73532,-7.09947 10.9481,-17.77068 8.14755,-27.93383 -2.78836,-10.11904 -11.42117,-17.58207 -21.62995,-19.51248 -10.35482,-1.95472 -21.0002,2.75186 -27.09869,11.18239 -6.07111,8.38486 -6.51076,19.84863 -1.68246,28.88762 8.25405,15.45083 29.27402,18.70774 42.26355,7.3763 z m -32.68759,0.20992 c -9.72505,-6.67654 -13.14165,-19.53831 -8.83361,-30.33277 4.38564,-11.00132 16.30728,-17.06789 27.78323,-15.18312 11.68891,1.92128 20.15746,12.32023 20.76287,23.92396 0.38489,7.41889 -2.91614,14.69784 -8.33617,19.67065 -8.83513,7.71098 -21.67105,8.58263 -31.37632,1.92128 z m 275.8289,-90.72599 c 15.12231,8.82295 20.02363,18.6484 15.89047,31.86005 l -1.44061,4.6062 3.72391,-3.06675 c 10.03697,-8.26622 18.43091,-16.40464 19.46538,-32.3453 1.01312,-15.63949 -8.39863,-30.94582 -24.56133,-39.94375 -6.57468,-3.65847 -11.94752,-4.14525 -17.63993,-4.66094 -1.28078,-0.11713 -2.59362,-0.24187 -3.94445,-0.39703 1.69915,-1.85434 3.25991,-3.88059 4.65031,-6.08025 9.03447,-14.33125 8.43354,-32.03804 -0.0717,-45.48243 3.10326,-0.11865 6.74661,0.40314 11.30108,1.65964 16.15209,4.44345 23.10097,12.32479 22.5214,25.5562 l -0.20844,4.81765 2.81118,-3.92014 c 7.27895,-10.14033 13.05796,-19.76041 10.08864,-34.80816 -2.91157,-14.76933 -15.41585,-26.65448 -32.63137,-31.02184 -2.66058,-0.67392 -5.04575,-0.96598 -7.27895,-1.01922 0.30428,-0.44267 0.60856,-0.88688 0.89754,-1.34323 11.03629,-17.50293 5.77445,-40.72561 -11.72994,-51.76192 -4.19096,-2.64083 -8.70893,-4.34151 -13.30601,-5.17209 -0.004,0.003 -0.009,0.004 -0.009,0.005 5.33333,-4.07835 9.96845,-8.56133 13.28317,-13.06712 2.43391,-3.311665 3.0865,-6.259754 1.93647,-8.766691 -1.63218,-3.564176 -6.66591,-5.765363 -15.3307,-6.706982 0.004,0.0012 0.004,0.0034 0.01,0.0012 1.37822,-11.001335 -3.11388,-22.316032 -12.41301,-29.263357 4.83438,-14.156304 5.00323,-27.696522 0.36815,-38.719158 l -0.3879,-0.924884 -1.0025,0.04872 c -11.93382,0.565887 -24.06845,6.544211 -34.74728,16.990304 v 0 c -10.33808,-5.667998 -22.66895,-4.94542 -32.14148,1.067883 -3.12758,-4.943901 -7.54821,-10.509983 -11.85776,-11.034798 -1.39191,-0.168853 -3.42575,0.109527 -5.20859,2.398939 -4.09812,5.261838 -6.95038,12.869368 -8.64196,21.205558 -0.001,-0.0034 10e-4,-0.0057 10e-4,-0.0057 C 308.02793,44.100994 304.47439,40.657 300.18003,37.947736 282.6771,26.91142 259.45747,32.173257 248.42116,49.67772 c -0.30731,0.483742 -0.59481,0.972047 -0.8747,1.4634 0.005,0.0091 0.008,0.01677 0.0122,0.02282 -1.02377,-2.047541 -2.33504,-4.13158 -4.14223,-6.302339 C 232.05468,31.21059 215.93906,25.05124 201.35987,28.790351 186.50229,32.596398 180.31403,41.959399 174.29766,52.898363 l -2.32288,4.225898 4.25635,-2.266595 c 11.6889,-6.22323 21.79577,-3.35425 32.77125,9.306721 3.1139,3.594592 5.16753,6.676555 6.39666,9.545534 -15.77031,-1.839133 -31.96197,5.251193 -40.97966,19.553533 -1.40409,2.223994 -2.56628,4.530143 -3.51248,6.886476 -0.75756,-1.204787 -1.46491,-2.383714 -2.14791,-3.535272 -2.92071,-4.911957 -5.67561,-9.553144 -11.81062,-13.905306 C 141.86123,72.002008 123.99472,70.108111 110.31759,77.765841 96.380341,85.566561 92.654922,96.650042 89.522765,109.26841 l -1.160688,4.68378 3.532232,-3.28427 c 10.141861,-9.42537 21.120371,-9.23827 35.599171,0.60543 8.19927,5.57673 11.60525,10.22704 12.64727,15.8342 -12.04792,1.83 -23.26983,8.67693 -30.26278,19.77105 -2.33353,3.69805 -4.03728,7.61819 -5.14014,11.63111 l 0.003,10e-4 C 90.294145,151.56192 74.694234,151.81596 62.952077,159.47065 49.571585,168.1932 46.59916,179.50182 44.32192,192.30122 l -0.844266,4.75072 3.30251,-3.51549 c 9.487736,-10.08405 20.454081,-10.63626 35.561157,-1.78742 2.091647,1.22457 3.883628,2.41263 5.43371,3.59156 -8.590206,2.99218 -16.264688,8.79709 -21.483912,17.07091 -6.069596,9.62618 -7.69424,20.81157 -5.42461,31.13445 0.0012,0 0.0012,0 0.0012,0 -11.162579,-0.7591 -21.581302,2.62253 -28.974343,9.79807 -10.649916,10.33656 -11.346629,21.17056 -11.144325,33.24432 l 0.08215,4.82223 2.56931,-4.08139 c 6.804336,-10.80661 16.641964,-13.24511 31.896581,-7.89959 15.799202,5.53411 16.575015,12.11332 18.274193,26.52368 l 0.144518,1.21999 c 0.702795,5.92813 3.892756,15.52538 7.520821,20.36431 1.706792,2.27422 12.549916,9.17286 18.72904,8.84277 -5.249674,15.16331 -1.00096,31.40519 5.666466,40.69367 3.22344,4.4921 7.31394,8.06541 12.00381,10.59365 -0.001,-0.001 0,-0.001 0,-0.003 -1.36908,8.00456 1.04507,17.88629 7.04773,24.52482 7.47519,8.69518 18.06731,10.49019 24.80166,7.21657 3.39531,-1.55618 5.78665,-4.14224 7.56799,-7.14508 -3.48507,6.17911 -3.79846,14.18977 2.75945,21.1158 6.47729,7.21962 20.39475,9.86347 31.07665,5.19186 1.44816,-0.60391 2.78987,-1.30975 4.02814,-2.08556 4.03879,2.7123 8.63586,4.58034 13.61019,5.47024 11.2569,2.00951 27.73911,-1.15612 39.16182,-12.42823 2.36394,5.71668 13.26487,12.5271 16.05019,13.08691 5.92813,1.18805 15.9635,-0.0699 21.6178,-1.98974 l 1.16373,-0.39551 c 13.73493,-4.68073 20.00379,-6.8165 31.80983,5.05495 11.39839,11.46227 13.43982,21.3881 6.62029,32.18559 l -2.57539,4.07834 4.38562,-2.00494 c 10.98004,-5.02149 20.45865,-10.31982 25.19567,-24.38638 3.32534,-9.87412 1.81783,-20.86938 -3.83343,-30.69939 0,0.001 0,0.003 0,0.003 10.19813,-2.44609 19.48811,-8.70583 25.51056,-18.25596 5.22076,-8.27988 7.14356,-17.71135 6.13956,-26.75792 1.69462,0.87926 3.50485,1.96692 5.46568,3.29492 14.49554,9.81782 18.726,19.95057 13.71365,32.85644 l -1.74484,4.49515 3.92014,-2.80966 c 10.57084,-7.56952 19.49269,-15.12685 21.59498,-30.96102 1.83914,-13.85359 -4.61532,-27.9947 -17.03746,-38.03309 3.15041,-2.72751 5.95703,-5.95855 8.29207,-9.66267 7.01579,-11.12305 8.34379,-24.24341 4.76289,-35.92926 5.48241,-1.44059 11.13367,-0.35597 19.65246,4.61075 z m -6.28556,-51.56114 c -1.66275,2.6332 -3.59316,5.00018 -5.72129,7.09792 -2.59669,-0.57652 -4.63814,-1.82696 -6.43012,-3.43334 2.40196,-2.06886 4.54535,-4.52253 6.3221,-7.33982 7.41585,-11.76498 6.39667,-26.4826 -1.42991,-37.03365 1.9821,-1.38885 4.04645,-2.35939 6.42556,-2.86139 8.64802,12.66555 9.52117,29.79122 0.83366,43.57028 z m -71.82663,54.63244 c 3.66914,4.99563 16.94769,9.4999 20.37345,9.28694 6.49706,-0.40465 16.58719,-4.49515 21.93573,-8.05933 l 1.10285,-0.73473 c 1.16983,-0.78038 2.28181,-1.52275 3.3497,-2.22098 1.74483,7.65471 0.5735,15.97262 -3.93686,23.12075 -2.48414,3.94296 -5.73343,7.12228 -9.42841,9.47253 -3.42574,-1.20478 -6.68873,-1.72808 -10.05972,-2.26658 -2.06426,-0.32706 -4.19698,-0.6663 -6.47726,-1.17742 -5.63301,-1.25651 -8.48831,-5.43829 -11.51399,-9.86805 -1.46796,-2.14336 -2.98003,-4.35824 -4.84655,-6.27952 -1.38428,-1.42534 -2.99523,-2.7199 -4.7492,-3.8684 -10e-4,0.003 -10e-4,10e-4 -10e-4,0.004 0.25406,-0.71498 0.47312,-1.43298 0.66022,-2.15403 1.30063,-1.64289 2.50542,-3.3923 3.59156,-5.25575 z m -10.42938,17.18958 c 0.89446,0.64194 1.75699,1.37518 2.56474,2.20726 1.90456,1.96234 3.48965,4.17569 5.02303,6.31299 2.76554,3.86691 5.62997,7.86157 10.45066,10.55105 4.22284,2.35331 8.83057,3.10478 13.28615,3.82735 4.81004,0.78038 9.35389,1.51969 13.38506,4.13157 12.06923,7.82658 20.8131,23.15574 14.79065,37.24056 -3.07889,-6.313 -8.37878,-12.54991 -14.92756,-17.46645 -7.79157,-5.85357 -16.37572,-9.2352 -24.16885,-9.52881 -8.66932,-0.32553 -16.05477,3.62199 -23.20137,7.44173 -4.77656,2.55106 -9.71438,5.19032 -14.90626,6.43317 -5.11428,1.22761 -10.80662,-2.89487 -15.83114,-6.529 -1.44362,-1.04813 -2.86289,-2.07494 -4.25329,-2.96635 2.37003,-1.03746 4.65183,-2.43848 6.73438,-4.22895 1.41623,-1.21543 2.66209,-2.54194 3.74823,-3.94142 2.88419,0.79863 6.06809,1.1835 9.44818,0.33467 2.4887,-0.62523 4.56058,-1.94562 6.56246,-3.22343 1.31737,-0.84124 2.56018,-1.63377 3.89276,-2.22247 2.67732,-1.18808 5.31203,-1.02835 8.10194,-0.86102 1.29757,0.0791 2.63776,0.15973 4.02205,0.10806 l 1.88628,-0.0684 -0.57046,-1.8011 c -0.88684,-2.80054 -5.30747,-5.33487 -9.51511,-7.44629 -3.08802,-1.54554 -7.68055,-3.56114 -11.8669,-3.19909 -2.45672,0.21297 -4.62293,1.1622 -6.69936,2.19053 -0.21144,-3.85625 -1.43298,-7.50408 -3.5018,-10.70774 0.9553,-0.12017 1.93343,-0.27838 2.92678,-0.47461 3.20671,0.96749 6.59593,1.18958 9.97755,0.59478 4.55147,-0.78189 9.02531,-3.09564 12.6412,-6.7085 z m -51.49268,43.78932 c -0.68149,1.42081 -1.49837,2.79445 -2.4263,4.10725 0.004,0.003 0.01,0.005 0.0137,0.009 -2.97091,-1.53641 -6.09546,-2.55106 -9.04811,-2.81575 -0.15668,-0.0152 -0.31184,-0.0183 -0.46855,-0.0289 0.067,-0.86402 0.0761,-1.72808 0.038,-2.59212 0,10e-4 0,0.003 0,0.003 1.01615,-0.91729 1.95475,-1.83155 2.81574,-2.70319 2.66667,1.91976 5.75624,3.22495 9.1333,3.76041 0.33009,0.0532 0.66933,0.0959 1.00703,0.13539 -0.31184,-0.035 -0.62217,-0.073 -0.93097,-0.12474 -0.0441,0.0867 -0.0913,0.16277 -0.13387,0.251 z m 0.49287,-1.94563 c -6.05893,-0.92641 -11.20059,-4.49059 -14.44684,-9.79351 1.63223,-0.93096 3.25081,-1.89845 4.84957,-2.91307 5.22839,7.78398 16.64197,9.51055 24.67237,2.60581 7.92242,-6.78304 8.00762,-17.97909 1.49079,-24.47006 1.28087,-1.37821 2.54042,-2.78987 3.77716,-4.22741 4.43582,4.09355 6.93667,9.60942 6.93361,15.51778 0.0305,6.22019 -2.83094,12.82221 -8.4031,17.60943 -5.56609,4.79179 -12.66857,6.65831 -18.87356,5.67103 z m -21.72884,-5.97071 c 1.71896,-0.82601 3.42575,-1.70072 5.1158,-2.618 1.94714,3.71021 2.79597,7.75511 2.4461,11.75891 -2.26205,0.0366 -4.38714,0.4381 -6.42251,1.05268 h 0.0106 c 0.73321,-3.37251 0.33617,-6.90323 -1.15003,-10.19359 z m -0.80471,10.85531 c -2.4689,0.92336 -4.82221,2.11141 -7.13747,3.28122 -1.52882,0.77278 -3.09869,1.56228 -4.67468,2.26356 -1.04506,-2.03235 -1.72505,-4.17419 -2.43543,-6.421 -0.38638,-1.22609 -0.78342,-2.46891 -1.2413,-3.70718 5.01541,-1.45882 9.98061,-3.32838 14.85911,-5.58736 1.47404,3.25689 1.63377,6.85757 0.62673,10.16922 z m 8.87924,-10.77622 c 0.58112,0.70129 1.20479,1.35845 1.86195,1.97758 -0.003,-0.001 -0.003,-0.001 -0.005,-0.003 -0.34227,0.34379 -0.68454,0.68607 -1.02529,1.01464 -0.20839,-1.00703 -0.4822,-2.00645 -0.83058,-2.98915 z m 5.40485,-7.69269 c 8.45179,-5.51439 16.44419,-12.18788 23.70791,-19.81518 5.78819,5.97222 5.60715,15.99239 -1.45881,22.04677 -7.17097,6.1487 -17.37671,4.7218 -22.2491,-2.23159 z m 42.95719,-45.15538 c 2.71233,-4.53773 5.02151,-9.07851 6.99755,-13.62843 7.22113,3.71782 10.09772,13.0656 5.51284,20.76591 -4.54233,7.65317 -14.01333,9.57901 -20.74009,5.14775 2.93136,-3.92927 5.68931,-8.02432 8.2297,-12.28523 z m -5.8049,37.42309 c 0,0.003 0,0.005 -10e-4,0.0122 0.0867,-0.0456 0.17646,-0.0898 0.26622,-0.13387 2.26355,-1.15002 4.40235,-2.23463 6.73436,-2.43696 3.46377,-0.30121 7.55733,1.51511 10.33656,2.90398 3.22039,1.61855 5.19035,2.8629 6.39058,3.81669 -0.25405,-0.0137 -0.50657,-0.0274 -0.75756,-0.0441 -3.00742,-0.17798 -6.12133,-0.36813 -9.43602,1.10136 -1.53033,0.67845 -2.92375,1.56683 -4.27459,2.42783 -1.89236,1.20783 -3.67978,2.34722 -5.7197,2.85834 -2.44154,0.61457 -4.7781,0.45331 -7.00819,-0.0639 l -0.004,0.003 c 2.00342,-3.30559 3.16713,-6.90171 3.47443,-10.44459 z m 9.27325,-15.52538 c -5.67256,1.02833 -11.42727,-0.39856 -16.15212,-3.94752 1.18654,-1.4345 2.35177,-2.88876 3.48811,-4.37347 7.37022,5.06257 18.01865,3.01504 23.12378,-5.59498 5.16299,-8.66474 1.83307,-19.13519 -6.30536,-23.09791 0.72408,-1.73417 1.3995,-3.46683 2.03232,-5.20251 5.53871,2.38068 9.68703,6.79216 11.52312,12.3902 1.92584,5.77295 1.32343,12.78265 -2.30769,18.85072 -3.61589,6.07719 -9.42841,9.92281 -15.40216,10.97547 z m 18.55411,-35.83342 c -0.51721,0.16732 -0.99792,0.4016 -1.45123,0.70279 -1.79655,-2.85225 -4.24872,-5.23143 -7.19225,-7.00361 0.0335,-0.0471 0.0654,-0.0928 0.10044,-0.13996 4.93021,0.95836 9.9593,0.22516 14.37842,-2.29244 0.58414,-0.33163 1.15611,-0.69672 1.71591,-1.08918 2.57844,0.51112 5.14926,1.24435 7.65317,2.02623 3.79388,1.17895 8.30879,2.1799 13.0443,0.64653 2.44001,-0.79256 4.42062,-2.24986 6.32972,-3.66001 1.25804,-0.92641 2.44457,-1.80112 3.73608,-2.47956 2.59058,-1.36149 5.23291,-1.37821 8.02738,-1.40102 1.29758,-0.01 2.64078,-0.0198 4.01749,-0.1643 l 1.88021,-0.19472 -0.69062,-1.7585 c -1.0755,-2.7397 -5.65585,-4.96825 -9.99585,-6.78762 -3.18539,-1.33713 -7.89959,-3.03936 -12.05399,-2.39284 -2.86593,0.44116 -5.26639,1.86957 -7.58926,3.25233 -1.93041,1.14849 -3.75129,2.23313 -5.76233,2.73818 -0.18255,0.0441 -0.36812,0.0867 -0.54915,0.12929 0.79712,-1.84676 1.40864,-3.84105 1.77524,-5.96312 0.45788,-2.89027 0.45788,-5.6178 0.0837,-8.15211 0,0.005 0,0.0122 0.003,0.0168 1.31584,-1.26108 2.691,-2.64537 4.11181,-4.09356 1.30214,-1.32344 2.42175,-2.46586 2.95722,-2.89484 6.63091,-5.32573 15.45997,-4.96673 21.97071,0.89294 2.0308,1.82697 3.76194,3.92926 5.43678,5.96007 3.01806,3.66914 6.14262,7.46454 11.13671,9.82392 4.37193,2.06427 9.0192,2.50086 13.51434,2.92527 4.85111,0.45485 9.43605,0.88534 13.63149,3.22039 12.5652,6.99904 22.32218,21.70755 17.25955,36.16201 -3.49572,-6.09089 -9.20479,-11.95664 -16.06537,-16.42441 -8.16738,-5.31357 -16.95985,-8.1141 -24.75758,-7.87983 -8.6678,0.25861 -15.77638,4.6929 -22.64765,8.98423 -4.59555,2.86745 -9.34626,5.83228 -14.44077,7.42194 -5.01997,1.56987 -10.97547,-2.15859 -16.23123,-5.44896 -4.87849,-3.05456 -9.4862,-5.93876 -13.33637,-4.68226 z m 10.34418,-12.14832 c 1.3219,-1.29607 2.52062,-2.77923 3.54744,-4.43736 0.99181,-0.17644 1.97908,-0.38181 2.95416,-0.62673 2.42024,-0.60695 4.51038,-1.84978 6.53206,-3.0561 2.18291,-1.29607 4.24414,-2.52519 6.56092,-2.8842 2.57844,-0.39854 6.01483,0.3225 10.50542,2.20575 3.32231,1.39191 5.37442,2.50389 6.63245,3.37708 -0.25253,0.001 -0.50655,0.004 -0.75603,0.009 -3.01504,0.0214 -6.13198,0.0456 -9.34322,1.73265 -1.48165,0.77734 -2.81272,1.76005 -4.10116,2.70928 -1.80719,1.33256 -3.5155,2.58908 -5.51435,3.23862 -3.95819,1.28086 -7.77183,0.44268 -11.30406,-0.65867 -1.86956,-0.58263 -3.78323,-1.1409 -5.71363,-1.60791 z m 5.40482,-13.96463 c -1.25956,7.17855 -5.42156,12.84957 -10.62407,15.80679 -5.06409,2.90551 -11.00591,3.34362 -16.59785,1.38888 0.59177,-1.74485 1.14547,-3.49117 1.65354,-5.24057 8.5583,2.75948 18.17685,-2.64383 19.98253,-12.92563 1.6946,-10.25138 -5.33637,-18.11296 -14.28866,-18.85532 0.16581,-1.81782 0.31338,-3.64021 0.44573,-5.46719 11.96879,0.74996 21.7182,11.01351 19.42878,25.29304 z m -25.12416,10.41415 c 2.63622,-9.46492 4.15133,-18.99373 5.096,-28.65032 8.06846,0.73018 14.33885,7.85242 12.81615,16.98574 -1.57901,9.13023 -10.1814,14.0346 -17.91215,11.66458 z m 22.08785,-58.91464 c 0.2312,-7.6836 -5.64823,-14.09547 -13.91444,-15.98024 0.25252,-1.62614 0.54308,-3.24015 0.88686,-4.83436 2.00191,1.18804 4.21526,1.98821 6.60354,2.297 2.56168,1.46491 4.79635,3.26451 6.64155,5.19338 3.4729,3.70108 5.56153,8.16279 5.36529,13.53415 -0.31183,10.61494 -9.9654,20.53317 -21.78816,20.25328 0.1156,-1.79655 0.2175,-3.59764 0.31183,-5.40331 8.64652,-0.1156 15.62883,-7.13291 15.89353,-15.0599 z m -15.8129,13.46265 c 0.21906,-4.53774 0.38637,-9.11049 0.55372,-13.71973 0.17189,-4.73856 0.48374,-9.50297 1.12112,-14.17 7.40825,1.57902 12.70509,7.42956 12.48755,14.3647 -0.24037,7.12228 -6.45143,13.33486 -14.16239,13.52503 z m 13.95094,-39.88593 c 4.34301,-0.73473 8.92186,-4.04334 11.39989,-9.2124 2.50844,-5.16143 2.224,-10.67579 0.1506,-14.50769 -0.43965,-0.82145 -0.95684,-1.56229 -1.52881,-2.24227 1.66116,-1.07701 3.40902,-2.09013 5.2238,-3.02567 0.34682,0.45942 0.67238,0.9401 0.97815,1.44667 3.11389,5.1006 3.84712,13.07473 0.13081,20.72183 -3.66608,7.66987 -10.57387,12.27911 -16.60542,12.92413 -1.6627,0.20381 -3.26603,0.1506 -4.79635,-0.11409 -1.76459,-0.92642 -3.66457,-1.70223 -5.68322,-2.28942 0.45942,-1.88021 0.99944,-3.73151 1.6277,-5.5463 2.66057,1.70375 5.80946,2.4461 9.10286,1.84521 z m -8.52179,-3.45616 c 2.52218,-6.61723 6.33583,-12.67769 12.14832,-17.72354 1.51818,-1.31583 3.16412,-2.58756 4.91501,-3.79386 0.59632,0.6891 1.1257,1.45123 1.55924,2.29853 1.79806,3.43183 1.99278,8.2586 -0.18559,12.74463 -2.15554,4.49667 -6.11675,7.4113 -9.9578,8.13234 -3.04086,0.60089 -5.98288,-0.0639 -8.47918,-1.6581 z m 13.6817,17.92585 c -0.55066,-0.73018 -1.14698,-1.44059 -1.79351,-2.12513 -0.17643,-0.18406 -0.36659,-0.36359 -0.55219,-0.54763 0,0.001 10e-4,0.003 10e-4,0.003 2.9344,-0.85189 5.86272,-2.06124 8.59479,-3.57029 2.09775,-1.16217 3.7376,-2.83246 5.31508,-4.44951 1.69615,-1.73568 3.30406,-3.37706 5.34856,-4.27305 3.03936,-1.33105 7.30328,-0.94466 10.24681,-0.53851 3.27971,0.45637 5.41243,0.9538 6.7952,1.42993 -0.17493,0.0502 -0.35291,0.099 -0.52633,0.14452 -2.79141,0.76669 -5.68321,1.55619 -8.25404,3.91863 -1.18501,1.0907 -2.17988,2.33046 -3.13824,3.52767 -1.34474,1.67484 -2.61494,3.25841 -4.30044,4.34455 -3.33904,2.15402 -7.06903,2.3122 -10.60278,2.16009 -2.35329,-0.10045 -4.75376,-0.14603 -7.13899,-0.0305 z m 7.01275,2.89484 c 3.81366,0.16277 8.25556,-0.0214 12.28217,-2.61646 2.07494,-1.34019 3.55202,-3.18238 4.98346,-4.96218 0.93403,-1.16523 1.81937,-2.26506 2.84162,-3.20822 2.05969,-1.89236 4.49209,-2.55562 7.06902,-3.26298 1.20174,-0.33009 2.44609,-0.66779 3.69347,-1.14241 l 1.7646,-0.67236 -1.11808,-1.51969 c -1.68093,-2.28789 -6.48945,-3.23255 -10.97243,-3.85624 -3.29189,-0.45484 -8.09127,-0.87318 -11.79389,0.75147 -2.55712,1.12113 -4.43428,3.0424 -6.24909,4.89673 -1.50294,1.53643 -2.92375,2.98614 -4.65488,3.9445 -3.1002,1.71591 -6.46358,3.00741 -9.76004,3.79235 -0.62215,-0.50353 -1.26106,-0.9964 -1.93497,-1.46491 0.40771,-0.0152 0.82145,-0.0425 1.2398,-0.0867 6.53203,-0.57807 14.21411,-5.57064 18.27418,-14.062 2.54955,-5.26184 3.16715,-10.63017 2.4385,-15.25461 4.02967,-1.40558 8.61609,-1.09679 12.93783,1.11656 2.32744,1.19263 4.44952,2.71382 6.49553,4.18482 3.70715,2.65906 7.53908,5.41397 12.76288,6.37233 4.56969,0.83666 8.98726,0.099 13.26336,-0.61609 4.60321,-0.76973 8.95073,-1.49686 13.40184,-0.36661 13.3029,3.37403 25.90142,14.52138 24.86252,29.06409 -10.74432,-10.86139 -30.01027,-16.49288 -43.78327,-12.39628 -7.9848,2.38066 -13.48546,8.2449 -18.80662,13.91746 -3.55049,3.78477 -7.21963,7.6973 -11.54291,10.42328 -4.24565,2.67427 -10.6697,0.68759 -16.33921,-1.06483 -1.54099,-0.47768 -3.05913,-0.94316 -4.51796,-1.31584 0.041,-0.41985 0.0684,-0.84124 0.0807,-1.26565 0.12778,-3.51701 -0.66021,-6.62787 -2.13729,-9.41775 1.74178,-0.0288 3.49267,0.0152 5.21924,0.0882 z m -13.82622,35.39227 c -1.48163,-1.14849 -3.10782,-2.10685 -4.84349,-2.85528 0.81993,-1.14547 1.56682,-2.33355 2.24224,-3.54746 3.85322,-1.83 7.12684,-4.70051 9.46798,-8.13386 -1.37215,5.43676 -3.81974,10.3168 -6.88344,14.52445 0.009,0.003 0.0106,0.01 0.0168,0.0122 z m -6.93363,-4.86783 c 0,0 0,-0.001 0,0 -0.2373,0.33923 -0.47766,0.67541 -0.73017,1.00551 -0.70585,-0.2008 -1.4269,-0.37271 -2.1601,-0.50807 0.98419,-0.099 1.94865,-0.2708 2.89027,-0.49744 z m 10.75793,4.29737 v 0 c 0.25557,0.57502 0.52938,1.1394 0.81689,1.69921 -0.35443,0.31488 -0.70886,0.63129 -1.06483,0.94467 -0.22514,0.20381 -0.45787,0.40767 -0.6891,0.61454 0,0.001 0.001,0.004 0.004,0.003 -0.251,-0.27838 -0.50961,-0.5522 -0.7743,-0.81839 0.004,0.004 0.01,0.008 0.0122,0.0122 0.5872,-0.79559 1.1546,-1.61247 1.69462,-2.45522 z m 3.05612,-0.24186 c -0.45332,-0.93705 -0.85646,-1.89997 -1.20786,-2.87658 1.54404,-2.85834 2.82031,-5.93269 3.72847,-9.20479 4.70662,3.6889 18.03691,4.58642 21.15231,3.54742 5.92967,-1.97755 14.28563,-8.25706 18.37158,-12.88305 l 0.84274,-0.95226 c 3.01349,-3.41968 5.53261,-6.26737 8.04564,-8.4579 7.09645,9.62313 8.00757,23.01275 1.25651,33.71898 -1.65965,2.63014 -3.66153,4.91043 -5.91293,6.82563 -0.95986,-1.08006 -1.8741,-2.24073 -2.80356,-3.41814 -1.60334,-2.04147 -3.26148,-4.1468 -5.25271,-5.9403 -6.33735,-5.6969 -16.62828,-8.85491 -24.46549,-7.49952 -5.59954,0.96594 -9.86347,3.87145 -13.7547,7.14051 z m 51.05153,-30.93212 c 0.31946,-0.27228 0.63586,-0.54002 0.95682,-0.79253 -0.32096,0.25251 -0.63736,0.52025 -0.95682,0.79253 z m 1.09829,-0.90206 c 0.34381,-0.26774 0.69065,-0.52938 1.039,-0.77278 -0.34835,0.2434 -0.69519,0.50504 -1.039,0.77278 z m 9.89389,-3.97034 c 0.22212,-0.0168 0.44883,-0.0289 0.67847,-0.041 -0.23125,0.0122 -0.45635,0.0243 -0.67847,0.041 z m 13.93725,-34.97397 c 16.13085,4.09052 27.8243,15.12229 30.52299,28.79181 2.22544,11.27667 -0.67245,19.30405 -7.10257,28.96215 -1.06481,-11.98555 -8.96589,-19.65089 -24.53234,-23.93458 -18.46288,-5.07929 -24.03048,1.23064 -34.13582,12.69139 l -0.84124,0.95075 c -3.76041,4.25632 -11.71781,10.25442 -17.12722,12.05705 -2.21485,0.7393 -14.85756,0.0562 -18.62253,-3.1991 -0.76823,-0.66323 -0.79561,-1.15308 -0.73018,-1.50294 l -1.89846,-0.33925 c 0,0 0,0.001 -10e-4,0.001 0.7895,-1.54858 1.39949,-3.17475 1.80109,-4.84654 1.31736,0.34987 2.71688,0.77885 4.14072,1.22152 6.25974,1.93648 13.35615,4.12854 18.71686,0.74994 4.63511,-2.92069 8.43506,-6.97013 12.10877,-10.88724 5.29075,-5.64213 10.28789,-10.9709 17.53185,-13.12645 13.50521,-4.02205 33.53487,2.42937 42.86288,13.80796 l 1.93347,2.35634 0.58565,-2.99068 c 3.4714,-17.72048 -11.10179,-31.45542 -26.57697,-35.38164 -5.03513,-1.27781 -9.88774,-0.46702 -14.58369,0.31946 -4.21373,0.7028 -8.19471,1.36909 -12.26849,0.62066 -4.58947,-0.84124 -7.99848,-3.28886 -11.60525,-5.87947 -2.13577,-1.53337 -4.34455,-3.11845 -6.86519,-4.40844 -4.87697,-2.49781 -10.17379,-2.86442 -14.86974,-1.33409 h 0.003 c -0.50657,-1.7144 -1.21393,-3.28123 -2.08101,-4.63967 -0.13691,-0.22665 -0.28295,-0.4457 -0.43201,-0.66019 6.03309,-1.86957 14.16239,-1.25195 19.91253,1.69005 2.06883,1.0618 4.02661,2.53129 5.92205,3.95513 4.36432,3.28275 8.88077,6.67807 15.48431,5.9692 2.31527,-0.24949 4.40086,-0.60545 6.41797,-0.95076 5.31968,-0.90663 9.91672,-1.69158 16.33007,-0.0639 z m -21.90986,-13.94638 c -0.25707,-8.57195 -5.61323,-17.95321 -14.33123,-25.08916 -4.7066,-3.85321 -9.86045,-6.6507 -14.99144,-8.26166 0.004,0.003 0.005,0.004 0.008,0.004 8.22362,-5.11274 18.99067,-5.43828 27.71478,0.0639 12.16954,7.67142 15.82498,23.81139 8.15356,35.97645 -2.63616,4.18025 -6.27033,7.35499 -10.40191,9.41318 -4.11787,-0.43506 -7.35653,-2.85985 -10.74729,-5.40939 -1.99278,-1.49839 -4.05248,-3.04392 -6.34036,-4.21677 -3.57636,-1.83 -7.88134,-2.85377 -12.16201,-3.05 10.1251,-2.90246 21.16752,-2.99678 31.02339,1.89846 l 2.14641,1.06634 z m 2.97396,-40.53394 c 16.16579,10.19359 21.02454,31.63492 10.82944,47.80227 -0.65716,1.04354 -1.36452,2.03993 -2.11145,2.98916 -2.24826,0.18254 -4.39932,0.5461 -6.59591,0.92185 -0.92641,0.15819 -1.87256,0.31945 -2.84313,0.46852 2.59066,-2.00799 4.88306,-4.49212 6.72985,-7.42195 8.51569,-13.50372 4.45555,-31.42193 -9.04967,-39.93611 -7.03252,-4.43429 -15.25919,-5.45197 -22.73589,-3.50941 3.68283,-1.93192 7.28654,-4.11789 10.6758,-6.48033 -0.003,0 -0.003,0 -0.005,0.003 5.21009,0.502 10.38523,2.18446 15.10702,5.16296 z M 413.95956,85.99587 c 0.16276,0.01221 0.3301,0.01826 0.4944,0.02887 -1.59423,-0.120172 -3.20366,-0.174923 -4.82069,-0.174923 0.004,0 0.009,0 0.0122,0 1.17591,-8.031958 -1.71591,-16.340766 -7.98174,-21.87642 0.0214,-0.04712 0.0425,-0.09435 0.0654,-0.144517 0.59479,-1.340172 1.14242,-2.678838 1.65355,-4.014445 8.01217,6.378392 11.83343,16.419853 10.57691,26.181417 z M 400.39197,66.691819 c -0.001,0.0012 -0.003,0.0046 -0.003,0.0057 5.21619,4.989538 7.52234,12.250234 6.34188,19.211274 -7.95436,0.349857 -16.07759,2.131203 -23.76269,5.185761 6.86214,-6.735882 12.95304,-15.222671 17.42384,-24.403117 z m -53.34855,1.851295 c -0.6085,-8.740822 -2.72145,-17.419283 -6.25063,-25.320401 0.16428,0.36357 0.31944,0.731694 0.47766,1.099828 5.89769,-4.035745 13.57825,-4.960639 20.3704,-2.17684 -6.40576,8.033464 -11.46985,17.245866 -14.59743,26.397413 z m 19.49267,-32.028902 c -0.99638,1.051147 -1.9806,2.137284 -2.94809,3.266025 -0.0168,0.01825 -0.0319,0.03799 -0.0487,0.05625 -7.7429,-3.506367 -16.62978,-2.649938 -23.49953,1.857387 -0.48222,-0.953794 -1.18501,-2.280285 -2.05513,-3.784746 8.40007,-5.36072 19.28427,-6.133486 28.55143,-1.394946 z m -44.83894,-7.93611 c 1.03744,-1.332573 1.9806,-1.385819 2.59669,-1.311272 4.59555,0.555231 11.41204,11.61133 13.87793,17.127211 5.19338,11.626539 7.21808,25.002467 5.70144,37.661897 l 2.85226,0.342272 c 3.2706,-27.310123 28.22742,-60.003794 55.78246,-62.074153 10.01106,25.75699 -8.73473,62.36928 -31.96651,77.092979 l 1.53793,2.424814 c 12.70053,-8.048683 28.06464,-12.041837 42.15249,-10.951136 8.61915,0.666287 14.05135,2.535847 15.30027,5.26032 0.68147,1.486195 0.12929,3.460731 -1.63834,5.868796 -9.27477,12.60924 -29.29378,25.04353 -45.57522,28.30957 l 0.52331,2.82638 c 8.22818,-1.40254 18.22398,1.92433 26.74121,8.896 7.26677,5.95094 12.00074,13.48698 13.05191,20.58338 -18.96635,-7.93917 -41.27782,0.2723 -54.45599,11.71628 -14.75565,12.81006 -17.38583,32.16431 -18.01256,49.40711 -1.10439,30.39362 -2.15097,59.0987 -19.07131,87.44325 -17.01463,28.49973 -43.4729,49.85132 -71.39761,57.8422 -0.4822,-0.99487 -1.02681,-1.97758 -1.69155,-2.93896 -0.22819,-0.33013 -0.46854,-0.64653 -0.70737,-0.97205 v 0.003 c 26.21792,-7.12988 51.57634,-26.90243 68.26088,-53.36223 0.59022,-0.93707 1.17741,-1.89087 1.74179,-2.83857 16.33771,-27.36833 17.36452,-55.52731 18.44759,-85.33678 0.48681,-13.39113 2.08407,-28.8222 10.224,-41.7372 2.56173,-4.05858 5.69387,-7.70947 9.30825,-10.84769 8.13691,-7.06599 18.38371,-12.23655 28.85111,-14.55943 6.33278,-1.40711 12.55905,-1.73873 18.49935,-0.98878 l 3.18995,0.40465 -1.82544,-2.64386 c -1.95322,-2.82487 -4.37803,-5.43525 -7.21354,-7.75357 -4.05705,-3.32382 -10.44305,-7.42955 -17.8285,-8.11865 -1.52424,-0.14299 -3.04239,0.0379 -4.5134,0.21146 -1.98061,0.23577 -3.8532,0.45787 -5.51284,-0.12779 -2.1951,-0.77886 -4.14983,-2.96939 -4.54837,-5.09908 -0.24949,-1.33256 0.13994,-2.45217 1.16066,-3.3299 2.20117,-1.89237 5.43221,-2.75794 8.55677,-3.59461 l 1.58052,-0.42745 c 4.25327,-1.19414 8.61913,-2.99373 13.73645,-5.66344 11.05002,-5.76079 19.43488,-12.46472 24.91882,-19.921655 l 0.0228,-0.03046 c 0.0259,-0.04107 0.0471,-0.07153 0.0471,-0.07153 l 0.003,-0.0046 1.10439,-1.504472 c -0.0152,0.0243 -1.75547,-0.658676 -1.75547,-0.658676 -1.55466,-0.610006 -4.5271,-1.423845 -9.86499,-1.83457 -9.27021,-0.718014 -19.11239,0.89142 -28.46626,4.656395 -1.44818,0.582624 -3.06826,1.499909 -4.78418,2.468908 -6.09698,3.44552 -11.02415,5.80642 -14.31907,2.37915 -1.07549,-1.1196 -1.55923,-2.21486 -1.4786,-3.352713 0.21295,-2.999817 4.20916,-6.127404 7.12835,-8.410725 0.50046,-0.390953 0.97205,-0.759087 1.4071,-1.115048 5.97681,-4.848067 11.34665,-11.022626 15.9635,-18.345695 9.59726,-15.221143 13.50523,-32.065411 10.45217,-45.059514 l -0.32402,-1.378209 -1.37972,0.302716 c -13.04127,2.84769 -26.55714,13.634537 -36.15288,28.854161 -4.96977,7.882865 -8.34835,15.925455 -10.03385,23.902638 -0.77885,3.669138 -1.80718,7.253097 -4.06313,8.638905 -1.1698,0.718015 -2.64536,0.824495 -4.51187,0.325545 -4.31718,-1.150029 -4.25785,-5.742545 -3.71022,-12.108775 0.15819,-1.836087 0.30728,-3.571774 0.22513,-5.062556 -0.46092,-8.348352 -2.38068,-16.354445 -5.70601,-23.796157 -1.91825,-4.294353 -5.5524,-9.909117 -8.27839,-12.787223 l -1.29303,-1.366046 -0.97661,1.607917 c -4.87393,8.010646 -7.38848,18.286368 -7.46758,30.536603 -0.041,5.654308 0.35596,10.943526 1.16677,15.718575 l 0.0715,0.419852 c 0.5461,3.177798 1.01768,5.926607 -0.6587,8.328581 -1.03441,1.486217 -2.62407,2.385247 -4.35824,2.465875 -1.83609,0.08671 -3.64023,-0.752995 -4.94542,-2.29854 -1.02378,-1.212401 -1.66115,-2.780753 -2.332,-4.441905 -0.7895,-1.953224 -1.60791,-3.970338 -3.15042,-5.750143 -3.13975,-3.615905 -7.41433,-6.754137 -12.36737,-9.080058 -3.06521,-1.440582 -6.21257,-2.46283 -9.35083,-3.037844 l -3.45465,-0.637377 2.02168,2.873543 c 6.4575,9.177412 9.40103,20.152883 8.51113,31.733797 -0.77276,10.02624 -4.34912,20.35064 -10.34114,29.85206 -6.53051,10.36092 -15.72312,19.20062 -25.87867,24.88839 0.008,-0.005 -11.12911,6.13956 -11.12911,6.13956 -25.40712,13.90379 -47.35351,25.91216 -63.61819,50.36547 -0.61,0.91881 -1.21849,1.86044 -1.80872,2.79597 -16.68149,26.45371 -23.59231,57.84979 -18.73055,84.5758 -0.40312,-0.0807 -0.80928,-0.16126 -1.21849,-0.22667 -1.13786,-0.18254 -2.24985,-0.251 -3.34207,-0.25861 -4.81765,-28.63509 3.0424,-61.70147 21.42156,-89.33409 16.86709,-25.35996 39.25461,-37.6102 65.17742,-51.79692 l 11.08803,-6.11676 c 18.77317,-10.5115 32.42442,-31.09793 33.96998,-51.22496 0.80623,-10.453685 -1.3402,-25.244331 -15.60907,-37.508268 6.85454,-2.097731 15.68209,-1.069402 24.17038,2.917673 9.96235,4.677696 17.27325,12.263925 19.55504,20.292825 l 2.77281,-0.745305 c -4.18,-16.535245 -1.94687,-43.813445 7.94398,-56.52004 z m 72.05629,99.310128 c -0.001,0.001 -0.005,0.001 -0.009,0.003 -0.34075,0.23731 -0.6739,0.48069 -1.00551,0.73169 -0.20233,-0.0425 -0.40464,-0.0867 -0.60696,-0.12322 0.53851,-0.19775 1.07853,-0.40005 1.62008,-0.61152 z M 255.29973,360.68535 c -2.84467,-3.18385 -6.24301,-5.83531 -10.0004,-7.80983 12.72639,-5.44743 23.13141,-13.452 30.12591,-23.35805 5.0808,-7.19986 8.58414,-15.6973 10.40654,-25.25956 l 0.23273,-1.24587 c 1.41167,-7.65317 3.08195,-14.00266 9.23067,-14.20956 2.14184,-0.073 5.09298,1.3615 7.34737,3.56724 1.85588,1.81326 2.90399,3.81212 2.88725,5.48393 l -0.0425,3.33902 2.45217,-2.26505 c 10.52518,-9.72656 19.55809,-27.79845 14.51532,-44.4906 -1.61707,-5.35462 -3.96426,-9.21241 -7.84485,-12.89826 -0.44266,-0.41985 -1.16069,-0.98574 -2.07341,-1.70377 -4.36281,-3.43485 -6.54421,-5.62386 -6.48489,-6.5092 0.32859,-1.63985 4.68532,-4.04032 13.6878,-5.72885 0.81232,-0.15214 3.09412,0.0137 5.29834,0.17038 7.28352,0.52329 12.14071,0.66628 13.24359,-1.98823 0.94467,-2.27268 -1.45123,-5.73948 -8.00611,-11.58393 l -0.17948,-0.15973 c -4.11637,-3.68435 -8.07759,-5.96464 -12.06162,-6.93364 1.46036,-5.17361 1.53338,-10.36395 1.59878,-15.39457 0.0516,-3.99315 0.10352,-8.12017 0.88077,-12.10571 1.36757,-7.0234 6.09547,-14.73741 12.34,-20.12703 4.5134,-3.8958 9.50295,-4.99258 14.78608,-6.15327 2.51303,-0.55371 5.11124,-1.12416 7.73531,-2.01558 l 2.13274,-0.72259 -1.55619,-1.63072 c -4.34153,-4.53928 -11.81365,-7.06751 -18.75642,-6.50464 1.71591,-8.60545 6.8089,-25.78438 9.34016,-32.64347 -5.17206,5.25878 -19.26755,17.5288 -26.29396,22.78759 -2.48259,-6.5077 -7.9863,-12.1605 -13.9555,-14.1198 l -2.13882,-0.70279 0.26469,2.23767 c 0.32859,2.75036 0.93249,5.34248 1.51662,7.84638 1.22916,5.26942 2.39288,10.24376 0.81996,15.99544 -2.16924,7.95738 -7.09034,15.55123 -12.84352,19.81061 -3.25841,2.41871 -6.96254,4.24567 -10.54192,6.01329 -4.5119,2.22857 -9.16069,4.53015 -13.20099,8.07912 -2.59213,-3.1778 -6.3571,-5.7684 -11.45617,-7.89657 l -0.22515,-0.0959 c -8.09735,-3.39226 -12.25328,-4.05855 -13.8977,-2.22704 -1.91976,2.13882 0.30272,6.45903 3.91253,12.80548 1.09223,1.92128 2.22553,3.9095 2.43849,4.70965 2.35786,8.84731 2.06732,13.81554 0.7317,14.81954 -0.77277,0.43354 -3.69043,-0.58871 -8.66933,-3.04849 -1.03898,-0.51263 -1.86042,-0.91729 -2.43392,-1.13633 -4.9941,-1.91215 -9.48925,-2.36395 -15.01578,-1.51663 -17.23827,2.64537 -29.64975,18.58604 -33.88783,32.27686 l -0.98725,3.18692 2.99221,-1.47557 c 1.50143,-0.7393 3.75737,-0.65413 6.19281,0.23731 2.96178,1.0846 5.53109,3.13064 6.38752,5.09299 2.46284,5.63605 -2.54801,9.88172 -8.84273,14.45445 l -1.02225,0.74993 c -7.84333,5.76538 -14.00419,12.58643 -18.30767,20.27765 -5.80186,10.35784 -8.54915,22.87887 -8.1293,36.37496 0.005,0.003 0.009,10e-4 0.009,0.004 -3.33904,-2.45067 -7.10249,-4.32174 -11.10477,-5.49153 -5.201,-26.30158 1.50903,-57.51513 18.08252,-83.79845 0.57655,-0.91728 1.17438,-1.83913 1.7722,-2.73665 15.87223,-23.86308 37.52957,-35.71628 62.60507,-49.43905 0.008,-0.004 11.14432,-6.14718 11.14432,-6.14718 10.72754,-6.01027 20.03273,-14.95037 26.9131,-25.86803 6.2415,-9.89544 9.9654,-20.67161 10.77316,-31.16335 0.84578,-10.996778 -1.59119,-21.479369 -7.04621,-30.547254 1.7585,0.518734 3.50942,1.18502 5.23598,1.995824 4.59403,2.157057 8.54155,5.048866 11.41813,8.362043 1.23066,1.417764 1.9228,3.13214 2.65907,4.946949 0.72865,1.796543 1.48317,3.656954 2.80053,5.216201 1.8863,2.234649 4.53927,3.442465 7.27135,3.316224 2.6332,-0.124746 5.03365,-1.471022 6.58375,-3.695003 2.34874,-3.370999 1.73114,-6.971684 1.13331,-10.455221 l -0.0715,-0.419851 c -0.78494,-4.607725 -1.16524,-9.726562 -1.13025,-15.215062 0.073,-10.849208 2.11599,-20.031182 6.06502,-27.332951 2.29702,2.859852 4.97281,7.166378 6.46054,10.494764 3.18084,7.122271 5.01694,14.787611 5.4596,22.783048 0.0715,1.289972 -0.0699,2.923743 -0.21905,4.657913 -0.48223,5.601072 -1.14546,13.270953 5.83076,15.131399 2.6332,0.702794 4.90436,0.482224 6.75566,-0.654114 3.33751,-2.050599 4.52254,-6.490987 5.36984,-10.493258 1.61705,-7.64251 4.86633,-15.370223 9.65355,-22.964064 8.84578,-14.026994 21.05951,-24.100401 32.92946,-27.237115 2.28484,12.064656 -1.53642,27.425753 -10.38221,41.454277 -4.44951,7.058368 -9.61399,12.995608 -15.34588,17.64898 -0.41528,0.336189 -0.87621,0.699738 -1.36756,1.081575 -3.34208,2.614945 -7.9209,6.197376 -8.22211,10.46891 -0.13993,1.966916 0.62371,3.833426 2.27421,5.549346 5.10059,5.30595 12.4404,1.15764 17.8011,-1.87108 1.63073,-0.92185 3.17171,-1.7935 4.44192,-2.30462 8.94619,-3.599179 18.34417,-5.141677 27.17323,-4.46016 3.3147,0.258585 5.60563,0.66324 7.17551,1.064837 -5.21164,6.486393 -12.85872,12.391703 -22.75871,17.553133 -4.93782,2.57541 -9.12721,4.30503 -13.18273,5.44438 l -1.54402,0.41986 c -3.2782,0.87621 -6.99145,1.86957 -9.69006,4.19092 -1.80111,1.54707 -2.54954,3.69042 -2.11143,6.03612 0.58111,3.1063 3.27667,6.16696 6.41186,7.27744 2.29094,0.8108 4.59099,0.53698 6.81195,0.2723 1.38126,-0.16429 2.68492,-0.31946 3.90797,-0.20536 6.66286,0.62367 12.52709,4.41146 16.27534,7.47975 1.74938,1.43296 3.32382,2.98306 4.7142,4.62749 -5.25271,-0.32858 -10.67275,0.10953 -16.17038,1.32953 -10.92527,2.42478 -21.61475,7.82352 -30.10762,15.19527 -3.82887,3.32688 -7.14509,7.18922 -9.85434,11.48357 -8.50504,13.49001 -10.16469,29.38961 -10.66668,43.16561 -1.0694,29.43222 -2.08101,57.23217 -18.04449,83.96883 -0.55219,0.92642 -1.12568,1.86346 -1.70375,2.77772 -16.57653,26.29092 -41.85586,45.80187 -67.8319,52.44493 0,0 0.001,0 0.001,0 z m -13.5752,-9.44667 c -0.54157,-0.21294 -1.08766,-0.41071 -1.6429,-0.59629 0.001,-10e-4 0.008,0 0.0122,0.001 6.69632,-4.89827 12.80852,-11.52615 17.79501,-19.43336 2.00495,-3.17778 3.83343,-6.56703 5.4383,-10.07491 4.46625,-9.74938 7.27895,-20.64576 8.13995,-31.51018 0.70584,-8.89294 5.13863,-18.38676 11.03327,-23.62579 2.53737,-2.25441 5.73037,-3.08044 8.76366,-2.26658 3.03023,0.81536 5.45654,3.16409 6.4864,6.28409 l 1.06027,3.19148 1.57597,-2.96787 c 2.46892,-4.6564 3.28124,-12.55753 0.0547,-18.64993 -1.81175,-3.42423 -5.64367,-7.67599 -13.60411,-8.73627 -1.4847,-2.44 0.70431,-7.14813 3.67827,-13.53565 4.84046,-10.40046 11.47137,-24.64195 9.15154,-43.14586 l -0.21754,-1.73568 -1.65962,0.55219 c -17.69919,5.88249 -27.68892,18.00495 -34.9846,26.85682 -4.48299,5.43677 -7.78855,9.44058 -10.62712,9.15308 -4.3917,-6.72524 -9.87716,-8.34989 -13.75166,-8.51112 -6.88648,-0.28295 -13.66497,3.85471 -16.80167,8.09127 l -1.99887,2.70165 3.336,-0.42289 c 3.25993,-0.41225 6.42403,0.76363 8.46549,3.14583 2.04297,2.38677 2.67275,5.62541 1.73265,8.88383 -2.18445,7.57862 -8.84275,15.67142 -16.56133,20.13919 -9.43145,5.45959 -18.05365,12.69594 -24.92489,20.9287 -2.47195,2.96177 -4.74312,6.07415 -6.74654,9.25194 -5.03213,7.97871 -8.40312,16.43659 -9.91975,24.66172 0,0 0,0 0.001,10e-4 -0.92793,-1.00855 -1.91215,-1.96082 -2.94961,-2.85226 0.29664,0.25253 0.58565,0.5081 0.87165,0.76974 -0.85188,-13.94638 1.74176,-26.87356 7.64556,-37.41852 4.10267,-7.3322 9.99125,-13.84598 17.50142,-19.36947 l 1.0116,-0.73778 c 5.32573,-3.86841 13.37441,-9.71288 9.78893,-17.92888 -1.17132,-2.6758 -4.32629,-5.28315 -8.0365,-6.63853 -1.98822,-0.72714 -3.89581,-1.01921 -5.5889,-0.87621 4.61988,-12.24263 15.72923,-25.51208 30.72676,-27.81214 5.00323,-0.77125 9.05723,-0.36204 13.55847,1.35996 0.44419,0.17037 1.25194,0.56892 2.18596,1.02985 5.06256,2.49629 9.42993,4.42973 11.65241,2.77619 2.82184,-2.09926 2.93137,-8.108 0.33162,-17.865 -0.29358,-1.10134 -1.22609,-2.76554 -2.71686,-5.39113 -1.49534,-2.63015 -4.5773,-8.04869 -4.24415,-9.45731 0.40767,-0.14757 2.47347,-0.46548 10.62254,2.94809 l 0.23427,0.0974 c 5.25728,2.19509 8.91273,4.87242 11.17475,8.18559 l 0.96444,1.41319 1.22457,-1.19413 c 3.97795,-3.87603 8.68455,-6.20043 13.66648,-8.66326 3.69347,-1.82088 7.51321,-3.70868 10.98155,-6.28103 6.24607,-4.62445 11.57331,-12.81004 13.90532,-21.3592 1.7585,-6.45598 0.4594,-12.02053 -0.7956,-17.40711 -0.38182,-1.6353 -0.76668,-3.31317 -1.07548,-5.02605 4.73854,2.49477 8.95074,7.66838 10.48411,13.14318 l 0.56589,2.01865 1.67484,-1.25653 0.88231,-0.65867 c 6.04069,-4.52103 12.24719,-9.16829 17.93041,-14.3206 -2.08557,7.13291 -3.55353,14.48793 -4.98195,21.65279 l -0.21449,1.07702 -0.41223,2.05665 2.06731,-0.35899 c 5.60258,-0.97966 12.08442,0.59326 16.37573,3.79082 -1.67789,0.45941 -3.35729,0.83667 -4.99868,1.19719 -5.40178,1.18958 -10.98458,2.41719 -16.04715,6.78608 -6.71002,5.78969 -11.79844,14.1274 -13.28009,21.7547 -0.82601,4.23655 -0.88381,8.49592 -0.93401,12.61685 -0.0745,5.55696 -0.14148,10.80358 -1.92584,16.0639 l -0.54917,1.62159 1.69007,0.25861 c 3.96577,0.61457 7.95588,2.75794 12.20308,6.5579 l 0.18254,0.16581 c 6.59897,5.88401 7.20289,7.88287 7.24397,8.31794 -1.1257,0.90664 -7.34436,0.46092 -10.36244,0.24492 -3.01198,-0.21602 -4.91347,-0.3362 -6.03309,-0.12779 -9.92735,1.86043 -15.30328,4.55144 -15.98022,8.00152 -0.53394,2.71686 3.09413,5.82468 7.52691,9.31432 0.81993,0.64652 1.52881,1.20328 1.87412,1.53033 3.49419,3.31927 5.61019,6.80129 7.07207,11.64936 4.39018,14.52291 -2.79901,30.26432 -11.85017,39.71249 -0.60239,-1.58964 -1.68701,-3.18539 -3.20517,-4.66552 -2.81878,-2.76403 -6.53052,-4.48602 -9.44818,-4.38562 -8.95987,0.3012 -10.76706,10.08404 -11.96121,16.55828 l -0.22818,1.23066 c -1.74786,9.15459 -5.08843,17.2778 -9.93345,24.13994 -7.12836,10.09621 -17.99582,18.13882 -31.3535,23.37783 z m -32.51113,11.71784 c -0.0882,0.0411 -0.17648,0.0761 -0.26621,0.11714 -1.1409,-2.50998 -2.57997,-4.88154 -4.27153,-7.06601 2.74729,-2.40045 4.36126,-5.76685 3.97335,-9.509 -0.27227,-3.84104 -2.81574,-7.91178 -7.07661,-10.56628 -4.2822,-2.54496 -9.17438,-2.76555 -12.72789,-1.16372 -3.5216,1.48166 -5.74255,4.60467 -6.44231,8.06999 -2.74729,-0.4153 -5.54478,-0.5081 -8.32096,-0.27687 -0.64652,-7.61667 4.19396,-15.74596 14.8743,-17.52576 5.28618,-0.78801 11.48204,0.32552 16.67543,3.39835 5.17817,3.05306 9.39796,7.70185 11.32686,12.73094 4.06161,10.16163 -0.87773,18.53738 -7.74443,21.79122 z m 0.6039,1.85587 c -0.0366,0.0152 -0.0745,0.0351 -0.11261,0.0532 0,-0.003 -0.003,-0.005 -0.003,-0.008 0.038,-0.0183 0.0776,-0.0305 0.11561,-0.0456 z m -6.36925,-10.30767 c -1.77068,-2.04906 -3.76498,-3.9034 -5.95705,-5.51435 -3.9384,-2.89485 -8.45939,-4.8359 -13.18727,-5.81252 1.21998,-6.07415 8.8914,-9.53795 16.04409,-5.633 7.42652,4.10115 7.77031,12.98953 3.10023,16.95987 z m 7.19832,-27.17779 c 1.39951,-0.87164 5.05798,-3.54441 8.82296,-9.51663 1.1607,-1.84068 2.23616,-3.83647 3.19606,-5.93725 1.03594,-2.25596 1.88933,-4.8496 2.61495,-7.92853 l 0.95681,-4.06462 -3.25535,2.61646 c -2.46284,1.98061 -4.43583,3.87145 -6.02702,5.77601 -1.36754,1.63985 -2.61189,3.34358 -3.69652,5.06103 -2.80507,4.44798 -4.55751,9.06941 -4.80547,12.67922 l -0.12018,1.7448 c 0.003,0 0.001,0 0.003,10e-4 -1.60032,-1.08614 -3.30711,-2.02625 -5.09148,-2.78533 0.003,0.003 0.004,10e-4 0.009,0.004 0.44267,-4.32629 2.38829,-9.44057 5.55086,-14.45445 1.20936,-1.91823 2.58909,-3.81061 4.10878,-5.62692 4.88914,-5.85815 12.16657,-10.69557 20.03574,-15.65926 -1.08463,9.23979 -2.31223,17.89085 -5.49154,24.82907 -1.05875,2.31221 -2.24529,4.51644 -3.52919,6.55332 -3.15802,5.00932 -6.99904,9.06637 -10.65146,11.29036 -1.26868,-1.30975 -2.67123,-2.52368 -4.17721,-3.6159 z m 1.41777,-4.8131 c 0.60541,-1.97907 1.68548,-4.57119 3.62502,-7.64859 1.01462,-1.61247 2.1829,-3.20822 3.46984,-4.75222 0.59632,-0.71193 1.25653,-1.42385 1.97758,-2.14339 -0.33771,0.96292 -0.6952,1.86501 -1.08311,2.70927 -0.90662,1.98211 -1.92279,3.86538 -3.01349,5.59803 -1.79502,2.84615 -3.552,4.86023 -4.97584,6.2369 z m 3.13671,11.57484 c 3.89426,-2.50238 7.89047,-6.76023 11.15495,-11.93839 1.35084,-2.14337 2.60127,-4.46018 3.71175,-6.88647 3.70868,-8.09432 4.85871,-18.08861 6.07873,-28.67162 l 0.34379,-2.97091 -2.5313,1.58964 c -9.02527,5.66193 -17.54706,11.01048 -23.25307,17.8437 -1.59878,1.91521 -3.05612,3.91101 -4.33238,5.93726 -3.21583,5.1006 -5.26338,10.36547 -5.88705,14.97472 -0.69977,-0.21146 -1.41015,-0.39248 -2.12819,-0.54461 -2.96936,-0.73474 -5.83228,-0.91575 -8.50045,-0.67235 0.79863,-6.22019 3.35727,-12.95303 7.46451,-19.46378 1.53036,-2.42327 3.26909,-4.81004 5.17211,-7.08879 6.80891,-8.15215 16.07302,-13.96312 26.79901,-20.68987 6.56397,-4.11638 13.8901,-8.71193 21.41092,-14.42708 -1.91671,9.24888 -2.90399,17.84065 -3.79084,25.53183 -1.44666,12.5834 -2.69404,23.4463 -7.11922,33.10592 -1.30671,2.85682 -2.78532,5.59651 -4.39019,8.13995 -3.9034,6.19281 -9.25348,12.16051 -15.30633,15.77184 -0.79102,-3.27211 -2.50998,-6.56855 -4.90132,-9.54402 z m 5.29227,11.79692 c 0.0365,0.27078 0.0639,0.54156 0.0852,0.80472 6.88498,-3.81365 12.91654,-10.4187 17.25653,-17.30215 1.67027,-2.65146 3.20821,-5.50524 4.56969,-8.47462 4.61381,-10.07186 5.88856,-21.14622 7.36261,-33.96995 0.99943,-8.69062 2.13272,-18.53586 4.58948,-29.1143 l 0.93553,-4.02812 -3.23256,2.57995 c -8.48375,6.77696 -16.88077,12.04335 -24.2875,16.68759 l -0.005,0.004 c -10.93288,6.85755 -20.37498,12.77961 -27.47444,21.28466 -1.98667,2.37458 -3.80148,4.8648 -5.39874,7.39455 -4.50123,7.14204 -7.24548,14.58223 -7.97565,21.45502 v 0 c -1.29455,0.28448 -2.53129,0.66934 -3.69196,1.14396 l 10e-4,-0.001 c -0.38033,-1.21848 -0.82145,-2.40958 -1.30976,-3.58397 1.4923,-9.85128 6.47878,-20.38563 14.32818,-29.78511 7.63646,-9.14853 17.4117,-15.27745 28.7279,-22.37234 13.6163,-8.54002 28.62142,-17.96081 42.8842,-34.7336 -8.98876,20.09966 -11.0211,37.70149 -12.85567,53.668 -1.52575,13.26944 -2.84159,24.72866 -7.80377,35.56417 -5.07929,11.09262 -12.24416,20.09357 -20.20308,25.72049 -2.1251,0.0791 -4.24416,0.31641 -6.34341,0.72257 0.0502,-1.16373 0.003,-2.38372 -0.15819,-3.66456 z m 29.31505,-21.58282 c 5.15232,-11.24929 6.5564,-23.48277 8.04719,-36.43276 2.35633,-20.51648 5.02908,-43.77106 22.74803,-71.51779 l 0.01,-0.0122 -2.42935,-1.53487 -0.0106,0.0152 c -17.39953,27.94601 -37.22989,40.38334 -54.72373,51.35426 -11.04545,6.92755 -21.47786,13.46872 -29.40787,22.96559 -7.17552,8.59174 -12.06009,18.13729 -14.21564,27.35882 l 0.003,0.01 c -0.65716,-1.16067 -1.37061,-2.29245 -2.15403,-3.38467 -0.0776,-0.10491 -0.15821,-0.20385 -0.23579,-0.30881 1.18807,-8.60999 4.57882,-17.60943 9.91825,-26.07644 1.93649,-3.06979 4.13157,-6.07719 6.52291,-8.94162 6.6583,-7.97871 15.01123,-14.99145 24.15669,-20.28371 8.31945,-4.81156 15.5056,-13.58738 17.88477,-21.82925 1.2139,-4.2046 0.36964,-8.41377 -2.31528,-11.54592 -1.93192,-2.26203 -4.62901,-3.69044 -7.57254,-4.10116 3.05154,-2.70317 7.6334,-4.86937 12.27762,-4.67617 4.77353,0.19928 8.73018,2.78227 11.77105,7.69119 l 0.29208,0.47462 0.53699,0.14908 c 4.75376,1.34778 8.67845,-3.41357 14.11066,-10.00342 6.83324,-8.29208 16.11409,-19.5429 31.98936,-25.36757 1.58965,16.83666 -4.56513,30.05742 -9.09831,39.80072 -3.60676,7.74293 -6.21258,13.33639 -2.94504,17.0466 l 0.36661,0.41528 0.55523,0.0639 c 5.73646,0.62522 9.77677,3.08348 12.01293,7.30481 2.17684,4.10725 2.1951,9.17438 1.07245,13.09146 -1.6429,-2.47803 -4.09204,-4.29434 -6.96557,-5.06711 -3.98404,-1.06941 -8.14605,-0.0137 -11.41663,2.89333 -6.41338,5.69538 -11.23103,15.96349 -11.98707,25.54553 -0.83666,10.53128 -3.56419,21.09299 -7.88895,30.53965 -1.55315,3.39228 -3.32079,6.66742 -5.25727,9.74025 -5.26338,8.34683 -11.8091,15.20291 -18.94353,19.97947 -0.44267,-0.099 -0.88839,-0.19624 -1.33715,-0.27686 -1.19717,-0.21297 -2.39893,-0.36662 -3.6022,-0.46397 7.18921,-5.93724 13.57369,-14.44076 18.2316,-24.61457 z M 134.73232,277.12422 c -0.11562,-0.21296 -0.22516,-0.42744 -0.3514,-0.64041 -1.60792,-2.70928 -4.06161,-5.23598 -6.95493,-7.33221 0.78038,-1.3858 1.65811,-2.6971 2.63622,-3.91101 0.2008,-0.25403 0.38183,-0.502 0.55525,-0.74689 -0.18254,-0.30274 -0.35902,-0.61153 -0.52937,-0.9234 0.37726,0.68761 0.78645,1.35389 1.2276,1.98974 1.71135,2.47804 3.86386,4.49972 6.32666,6.02094 v 0 c -0.52937,1.47099 -1.06938,3.08651 -1.55312,4.81004 -0.45942,0.22818 -0.91273,0.4685 -1.35691,0.73169 z m -2.08254,-12.68226 c -3.57177,-5.16144 -4.95152,-12.35825 -3.02718,-19.43029 1.91215,-7.07664 6.63242,-12.49059 12.25176,-15.13748 5.18882,-2.47502 11.0637,-2.64388 16.54609,-0.57959 -0.76516,1.73263 -1.49836,3.47899 -2.19052,5.23446 -8.55979,-2.76402 -18.31983,2.12207 -20.97434,12.00075 -2.71685,10.0308 3.50639,19.41968 12.53929,21.01845 -0.22362,1.88477 -0.40312,3.76648 -0.53851,5.64213 -5.99507,-0.74387 -11.24778,-3.8182 -14.60659,-8.74843 z m 7.1314,-124.19394 c -0.16885,1.23217 -0.35139,2.51756 -0.54763,3.87145 l -0.18711,1.30975 c -0.90967,6.36471 -0.24949,17.23218 2.18597,23.2683 1.28388,3.18387 11.07282,13.22533 17.16218,14.38145 -1.63679,2.40654 -2.99525,4.91957 -4.1118,7.4904 -2.01255,-1.29759 -4.13463,-2.35939 -6.27799,-3.08044 -2.53736,-0.85339 -5.18731,-1.26563 -7.75356,-1.6642 -5.29987,-0.82144 -10.30768,-1.59726 -13.8688,-6.13804 -1.4406,-1.83611 -2.66821,-3.61591 -3.8532,-5.3379 -1.90913,-2.77011 -3.76346,-5.44591 -6.26432,-7.9848 0.51874,-4.36126 1.98973,-8.67542 4.48603,-12.63206 4.4784,-7.10553 11.42575,-11.73605 19.03023,-13.48391 z m 0.19168,-1.46493 c -0.0289,0.22819 -0.0624,0.46093 -0.0898,0.69214 0.0274,-0.23121 0.0608,-0.46395 0.0898,-0.69214 z m 68.94239,11.20974 c 0.12625,-0.43203 0.251,-0.86252 0.37421,-1.29455 0.62065,0.0198 1.2413,0.0274 1.85891,0.0106 -0.61761,1.01008 -1.19719,2.03232 -1.73267,3.06978 0.001,0 0.001,0 0.003,0 -0.31488,-0.0867 -0.63128,-0.1719 -0.95228,-0.24643 0.001,-0.001 0.004,0.001 0.009,0.001 0.14602,-0.51569 0.29206,-1.03291 0.44114,-1.54097 z m 12.59401,13.26945 c -1.58814,0.91272 -3.1656,1.83303 -4.73246,2.76554 -4.60618,-7.53756 -14.57462,-10.34874 -22.94581,-4.50582 -8.28903,5.90988 -9.13634,16.57502 -3.35577,23.14662 -1.36908,1.20023 -2.7199,2.43393 -4.04942,3.70869 -3.90189,-4.14831 -5.91142,-9.51511 -5.49915,-15.12835 0.41073,-5.95703 3.71172,-12.13919 9.62311,-16.34835 11.7239,-8.1065 25.03443,-3.89429 30.9595,6.36167 z m 55.64558,-55.15879 c -4.37954,-0.19624 -9.52729,1.96235 -13.14623,6.5077 -3.64632,4.52404 -4.68682,10.13883 -3.49724,14.41492 0.6526,2.46586 1.973,4.51492 3.7376,6.09543 -1.21849,1.38127 -2.48415,2.71078 -3.7939,3.98101 -0.99333,-0.99335 -2.03383,-1.90151 -3.11238,-2.71688 -0.9401,-1.31127 -1.70679,-2.78987 -2.25288,-4.44798 -2.00342,-5.77296 -0.77736,-14.07114 4.6214,-20.76441 5.36072,-6.72675 12.93325,-9.5486 18.91767,-8.96748 0.37879,0.035 0.74996,0.0836 1.11655,0.14299 -0.24795,1.96235 -0.61608,3.93077 -1.09829,5.89768 -0.4883,-0.0776 -0.98574,-0.12474 -1.4923,-0.14299 z m 1.0329,1.87413 c -1.73569,6.17 -4.58948,12.2913 -8.47918,18.07644 -1.33564,1.98669 -2.7823,3.90189 -4.31869,5.73797 -1.5425,-1.45731 -2.68341,-3.31624 -3.22952,-5.5174 -0.98726,-3.81669 -0.0351,-8.69672 3.13368,-12.63055 3.14889,-3.95209 7.62881,-5.89464 11.53069,-5.77447 0.46247,0.01 0.91728,0.0487 1.36302,0.10805 z m -19.76194,0.16429 c -5.97832,7.40825 -7.21203,16.58109 -4.9348,22.77847 0.1506,0.43202 0.31946,0.85034 0.49442,1.26106 -1.09832,-0.63434 -2.21792,-1.18499 -3.336,-1.67028 -0.8032,-3.46377 -1.12876,-7.25915 -0.90664,-10.99066 0.11865,-1.97756 0.81688,-3.88213 1.55163,-5.89924 0.89447,-2.43847 1.81631,-4.96065 1.72655,-7.74901 -0.13235,-4.04485 -2.5769,-8.194689 -4.4069,-10.967844 -2.49479,-3.775619 -5.42006,-7.706424 -8.20842,-8.237309 l -1.85588,-0.352915 0.1567,1.880206 c 0.10953,1.328009 0.33771,2.599715 0.55978,3.825819 0.47616,2.630143 0.92492,5.111238 0.10502,7.782453 -0.40919,1.33257 -1.02225,2.6028 -1.67029,3.95058 -0.9918,2.05667 -2.01405,4.1833 -2.32894,6.63243 -0.60696,4.75377 1.14395,8.84123 2.93288,12.21374 0.98118,1.84978 1.94256,3.75281 2.78075,5.68626 0.001,0 0.003,0.003 0.004,0 -2.96635,-0.0214 -5.92662,0.6328 -8.85646,2.16616 -0.41831,0.21299 -0.82447,0.44574 -1.22455,0.68911 -1.16828,-1.52119 -2.58451,-3.05912 -4.03728,-4.63357 -4.02511,-4.35976 -8.58871,-9.30063 -8.00456,-14.28257 0.5948,-5.07474 2.54498,-10.07339 4.43126,-14.909305 2.82336,-7.245465 5.74558,-14.735883 4.44951,-22.967086 -2.23919,-14.19586 -15.62425,-29.150796 -30.05743,-34.164681 12.67466,-7.207451 28.16659,-0.643469 36.94241,9.906071 2.93896,3.529183 4.15592,7.765739 5.44742,12.251762 1.19567,4.163527 2.43543,8.47157 5.16144,12.231981 3.11694,4.300435 7.25157,6.573099 11.25231,8.769733 2.21033,1.215437 4.4967,2.470429 6.57616,4.058563 4.20006,3.206697 6.50313,7.669904 6.66742,12.327802 -4.05704,1.51361 -8.10952,4.27916 -11.41204,8.41227 z m -10.94657,21.17815 c -1.05725,-0.32095 -2.11295,-0.57196 -3.16714,-0.74689 -0.99943,-2.51455 -2.21641,-4.96368 -3.4714,-7.32156 -1.65809,-3.12454 -3.12453,-6.5579 -2.6195,-10.50237 0.25253,-1.98669 1.13633,-3.81517 2.0673,-5.74864 0.66327,-1.38427 1.3554,-2.81574 1.82699,-4.35518 1.0268,-3.337511 0.49133,-6.287141 -0.0229,-9.136336 -0.0319,-0.177982 -0.0624,-0.35902 -0.0944,-0.535461 1.02531,1.040503 2.39589,2.750315 4.21984,5.512836 1.63527,2.481061 3.8243,6.162381 3.92925,9.478601 0.0745,2.23313 -0.71346,4.38866 -1.54706,6.66895 -0.77886,2.12359 -1.58054,4.31868 -1.72504,6.71457 -0.19929,3.35123 0.0183,6.7572 0.6039,9.97148 z m -14.48032,2.59063 c 4.77658,-2.49936 9.72353,-2.54956 14.58223,-1.02987 2.62561,0.85189 5.30596,2.13425 7.80225,3.88818 0.96443,1.48318 2.13272,2.76405 3.45159,3.85169 -1.1424,1.03594 -2.30918,2.03234 -3.50635,2.97547 -5.28617,-5.9707 -13.19795,-8.10647 -19.73454,-4.73853 -6.92453,3.59306 -10.23772,12.6275 -6.94279,20.38106 -1.58964,0.88383 -3.17017,1.76762 -4.74309,2.65753 -5.02454,-10.47347 -0.25557,-23.17856 9.0907,-27.98553 z m 21.0945,10.63624 c -2.14184,1.59879 -4.34913,3.05151 -6.60505,4.31413 l -11.05913,6.10154 c -2.13577,1.16979 -4.26241,2.332 -6.37385,3.49876 -2.82031,-6.93667 0.10953,-14.91996 6.30539,-18.14489 5.89007,-3.03936 13.07017,-1.15308 17.73264,4.23046 z m -32.58565,15.76726 c -0.72106,-0.99641 -1.51665,-1.92433 -2.37004,-2.78078 0.38943,-0.74537 0.80166,-1.47098 1.23977,-2.1814 0.18104,1.67028 0.55219,3.336 1.13027,4.96218 z m -6.10155,6.53203 c -8.32097,5.01997 -16.29664,10.41872 -23.71857,16.76972 -5.08692,-5.98591 -4.26091,-15.53147 3.10019,-20.74768 7.43563,-5.20857 16.40618,-2.76554 20.61838,3.97796 z m -25.81024,-11.29036 c -2.05209,1.45428 -3.80451,3.12758 -5.2588,4.94239 -0.19623,-0.74538 -0.37115,-1.49686 -0.52329,-2.24985 -0.41225,-2.03233 -0.21906,-4.14225 -0.0152,-6.37993 0.24644,-2.68948 0.49893,-5.47176 -0.33467,-8.251 -1.20632,-4.02509 -4.77507,-7.5467 -7.35653,-9.84369 -3.51245,-3.13216 -7.498,-6.30386 -10.43394,-6.09242 l -1.88322,0.13386 0.63434,1.78135 c 0.46394,1.30215 1.0344,2.51758 1.58508,3.69347 1.18503,2.53129 2.30463,4.92262 2.1951,7.85091 -0.0562,1.45277 -0.3362,2.904 -0.62828,4.43888 -0.44873,2.33049 -0.91118,4.7431 -0.57195,7.28808 0.65716,4.93326 3.50789,8.57806 6.2065,11.49116 2.18291,2.35176 4.34304,4.82524 6.14869,7.45998 0,-0.004 0.001,-0.0106 0.001,-0.0137 -0.067,0.49132 -0.12321,0.98574 -0.15364,1.47706 -0.32097,4.5271 0.85492,8.88689 3.25082,12.64274 -0.001,0 -0.003,-0.003 -0.004,-0.004 -0.1126,0.23121 -0.23427,0.45939 -0.36357,0.69062 -2.92527,-1.70222 -6.15935,-2.70013 -9.50448,-2.90702 0,0 0.001,0 0.001,0 0.19015,-0.75605 0.24035,-1.5075 0.143,-2.26355 -0.52937,-4.01902 -5.11734,-6.93363 -9.97301,-10.01711 -5.23447,-3.32382 -11.16867,-7.08879 -11.9186,-12.29436 -0.75756,-5.28465 -0.13083,-10.85074 0.47612,-16.23123 0.90815,-8.05171 1.84675,-16.37725 -1.6581,-24.31183 -3.15042,-7.13443 -9.46341,-13.85968 -17.78133,-18.938968 -6.98688,-4.266971 -14.74044,-6.889539 -21.74406,-7.418917 10.86289,-10.797468 28.33847,-8.336168 40.06846,-0.01221 3.91557,2.779235 6.28103,6.729778 8.78494,10.911575 2.31832,3.87297 4.71571,7.87982 8.46395,10.9344 4.2822,3.48812 9.04963,4.67009 13.66497,5.81556 2.55256,0.63281 5.19642,1.28844 7.72313,2.33351 8.09127,3.34818 12.22286,11.16258 10.27268,19.43944 -0.15667,0.66629 -0.70279,2.17227 -1.33562,3.9171 -0.89142,2.44914 -1.72048,4.78418 -2.38979,6.92907 -1.94107,0.7332 -3.88212,1.7433 -5.78819,3.05914 z m -6.87582,7.20442 c -1.08464,1.71744 -1.91826,3.517 -2.51152,5.34854 -1.53033,-1.99277 -3.20668,-3.88667 -4.89065,-5.70148 -2.51304,-2.7138 -4.91806,-5.79121 -5.46569,-9.91821 -0.27838,-2.08407 0.12017,-4.16507 0.54458,-6.3708 0.3012,-1.56988 0.61153,-3.19604 0.67847,-4.86786 0.13994,-3.62653 -1.18502,-6.44837 -2.46586,-9.17741 -0.10501,-0.22818 -0.21299,-0.45939 -0.31945,-0.68757 1.33103,0.76058 3.21734,2.13272 5.90681,4.53167 3.63414,3.23861 5.76689,6.02852 6.51683,8.52937 0.67391,2.24376 0.45486,4.63206 0.22513,7.16333 -0.21295,2.33961 -0.43656,4.76439 0.0578,7.20898 0.32401,1.59877 0.74537,3.18389 1.24435,4.73703 0.15361,-0.26775 0.31488,-0.53244 0.47917,-0.79559 z m 1.76611,27.5155 c -1.30824,1.31432 -2.59823,2.66666 -3.86387,4.06464 -7.08422,-5.2299 -17.61702,-3.64022 -23.08119,4.55753 -5.42459,8.10344 -2.91461,18.2818 4.42669,22.91234 -0.85185,1.66724 -1.66417,3.34969 -2.44911,5.03974 -4.96064,-2.76098 -8.53092,-7.19832 -9.99886,-12.55905 -1.63377,-5.83228 -0.6724,-12.71876 3.24016,-18.583 3.89275,-5.8764 9.95169,-9.42536 15.98325,-10.16466 5.66649,-0.72562 11.2706,0.99333 15.74293,4.73246 z m -28.83591,45.75773 c -3.74367,9.83763 -6.31298,19.91712 -7.64405,29.91598 -8.12472,-1.62921 -13.56453,-10.05667 -11.15647,-18.99071 2.36241,-8.7895 11.02869,-13.25727 18.80052,-10.92527 z m 7.07054,-15.65619 c -6.49703,-4.30502 -8.61455,-13.37441 -3.8045,-20.56361 4.84348,-7.26374 14.17757,-8.78038 20.63507,-4.25936 -3.27362,3.72086 -6.39056,7.73683 -9.31432,12.13615 -2.73968,4.11939 -5.24053,8.36053 -7.51625,12.68682 z m -7.04773,5.89314 -0.01,-0.005 c 0.34378,0.26163 0.69062,0.52026 1.04811,0.76363 -0.2723,-0.0776 -0.5446,-0.143 -0.81688,-0.20841 l 0.001,-0.001 c -0.073,-0.18254 -0.15366,-0.36052 -0.22362,-0.54763 z m -7.77027,-11.41208 c 0.72256,2.59062 1.90453,4.96675 3.46832,7.066 l -0.01,-0.0122 c 0.3514,1.53187 0.77429,2.99069 1.25653,4.36433 -3.87604,-0.3514 -7.76421,0.3012 -11.36187,1.99429 0,0.001 -0.003,0.001 -0.003,0.001 0.0624,-2.63928 0.10501,-5.36376 -0.89142,-8.01521 -1.47861,-3.93383 -5.27401,-7.20745 -8.00304,-9.32953 -3.7163,-2.88724 -7.90721,-5.78209 -10.81879,-5.3744 l -1.87108,0.25861 0.75149,1.73112 c 0.55066,1.27324 1.20022,2.44761 1.82999,3.58395 1.35539,2.44457 2.6332,4.75376 2.71839,7.68055 0.041,1.45883 -0.13995,2.92222 -0.3301,4.47081 -0.29056,2.35938 -0.5887,4.79635 -0.0791,7.31394 0.78645,3.89579 2.91918,6.87583 5.21621,9.30671 -0.70737,1.46948 -1.30063,3.03328 -1.74786,4.68226 -0.73018,2.70165 -1.01009,5.41548 -0.90666,8.04412 -1.66266,-1.11352 -3.58394,-2.16315 -5.55238,-3.23256 -5.44438,-2.96635 -11.61893,-6.32667 -12.71572,-11.46834 -1.11503,-5.22077 -0.861,-10.81575 -0.61913,-16.22514 0.36357,-8.09584 0.74235,-16.46244 -3.2858,-24.14452 -3.62502,-6.90777 -10.376095,-13.19185 -19.016544,-17.7007 -7.257652,-3.78628 -15.170942,-5.88401 -22.195837,-5.94029 10.114456,-11.50333 27.716288,-10.22248 39.980211,-2.70622 4.09355,2.50846 6.71916,6.29169 9.4984,10.29701 2.57234,3.70718 5.23446,7.54061 9.18044,10.33961 4.50428,3.19453 9.34169,4.05248 14.02242,4.88306 2.59214,0.45941 5.2725,0.93554 7.8631,1.81023 1.53946,0.51721 2.94809,1.2048 4.21831,2.02776 -1.70376,4.81765 -1.85893,9.85131 -0.59631,14.29322 z m -20.5271,15.16486 c -0.41834,-2.05969 -0.15821,-4.16503 0.1156,-6.39361 0.19318,-1.58813 0.39552,-3.23103 0.34834,-4.90433 -0.10644,-3.62505 -1.61702,-6.35103 -3.07587,-8.99031 -0.1217,-0.21753 -0.24337,-0.4381 -0.36659,-0.66172 1.37821,0.6678 3.35273,1.91215 6.19888,4.12246 2.45371,1.90607 5.8536,4.81764 7.07815,8.06845 0.82146,2.1951 0.76519,4.59403 0.7028,7.13291 -0.0122,0.502 -0.0229,1.00856 -0.0289,1.51817 -2.7534,1.82847 -5.19796,4.32325 -7.10859,7.33828 h 0.004 c -1.78588,-2.01104 -3.28122,-4.32175 -3.86842,-7.2303 z m 16.39855,44.15745 c -1.45885,0.14908 -2.88269,0.43965 -4.26392,0.85493 0.21904,-0.68758 0.45481,-1.38733 0.70582,-2.09469 1.13939,0.50958 2.32897,0.92642 3.5581,1.23976 z m 3.33143,1.50143 c -0.099,1.92583 -0.14755,3.8441 -0.15366,5.75168 -3.62807,0.13691 -6.98688,1.37973 -9.68853,3.57482 -0.29966,-2.12664 -0.82903,-4.24415 -1.75242,-6.32516 3.43337,-2.08251 7.42498,-3.10476 11.59461,-3.00134 z m -0.15366,7.33982 c 0.0684,5.33787 0.51875,10.59364 1.35693,15.71705 h 10e-4 c -1.32801,0.11713 -2.6332,0.29664 -3.9171,0.47764 -2.33352,0.33012 -4.56056,0.63589 -6.84388,0.57199 -0.0487,-1.72352 -0.0122,-3.48052 0.0259,-5.19338 0.0562,-2.47045 0.10952,-4.97737 -0.0822,-7.47673 2.52368,-2.44153 5.84903,-3.94902 9.45884,-4.09657 z M 258.1033,55.783273 c 7.67143,-12.165044 23.80984,-15.822022 35.97339,-8.1506 8.67083,5.465682 13.01082,15.228752 12.02356,24.791035 -3.59762,-3.729995 -8.17798,-6.996008 -13.45502,-9.472529 -10.19509,-4.788739 -20.96825,-5.582807 -28.81612,-2.117512 l -2.19206,0.967484 1.88782,1.477091 c 12.71877,9.954741 16.2662,21.964633 16.58565,31.612096 -1.88171,-5.569138 -5.57367,-11.025671 -10.08707,-14.468158 -2.04299,-1.560754 -4.32782,-2.751855 -6.5366,-3.9034 -3.69044,-1.924325 -7.21661,-3.761929 -9.39495,-7.163345 0.0547,-4.654877 1.35082,-9.352344 4.0114,-13.572162 z m -5.80795,9.402556 c -0.1506,-0.467017 -0.29358,-0.927941 -0.43201,-1.384301 0.13843,0.45636 0.28141,0.918813 0.43201,1.384301 z m 56.7378,6.673509 c 0.073,1.509036 0.18254,2.992208 0.32703,4.441906 -0.25251,-0.349869 -0.51568,-0.695186 -0.7834,-1.038974 0.21906,-1.128739 0.37268,-2.263548 0.45637,-3.402932 z m -10.38221,-31.48127 c 4.86024,3.065215 8.68604,7.148125 11.39989,11.796921 -0.72259,4.703549 -1.0968,9.54858 -1.13177,14.267349 0,-0.0034 0,-0.008 -10e-4,-0.01221 -0.96444,-8.427451 -5.59041,-16.360526 -13.30747,-21.22533 -13.50676,-8.518722 -31.42194,-4.458642 -39.93612,9.046595 -1.88477,2.989162 -3.15193,6.191284 -3.83799,9.461873 -0.31337,-1.034421 -0.60088,-2.044496 -0.88077,-3.033281 -0.59328,-2.084039 -1.17437,-4.119407 -1.94106,-6.163903 0.54763,-1.119612 1.15612,-2.225522 1.83457,-3.305579 C 261.04279,35.046212 282.4887,30.1875 298.65147,40.378032 Z M 211.17119,62.283375 C 200.59882,50.083329 190.27594,46.259028 179.00081,50.460591 c 5.94332,-9.963869 11.93839,-16.034993 23.07054,-18.888763 13.49609,-3.459214 28.4921,2.338082 39.13899,15.129869 4.23352,5.085386 5.50526,9.569882 6.98232,14.761747 0.55525,1.968432 1.13483,4.005328 1.90759,6.200423 2.20576,6.264301 7.2166,8.87773 12.0601,11.401404 2.10077,1.095266 4.27153,2.228557 6.11979,3.638699 5.25879,4.012951 9.3919,11.331434 10.16621,17.68703 -1.83914,-0.13386 -3.81062,0.0197 -5.82621,0.49287 -0.41681,-5.23295 -3.08044,-10.231604 -7.70643,-13.765353 -2.25287,-1.718962 -4.63508,-3.02721 -6.93668,-4.291329 -3.89426,-2.141837 -7.56948,-4.160468 -10.30764,-7.940662 -2.43241,-3.351204 -3.54747,-7.231786 -4.7279,-11.337514 -1.31736,-4.57425 -2.67582,-9.302145 -5.99812,-13.295301 -10.21485,-12.273064 -28.88762,-19.501816 -43.38316,-8.730177 l -2.44608,1.819349 2.95873,0.727143 c 14.28715,3.513976 28.74313,18.80509 30.93669,32.725616 1.1759,7.464519 -1.47862,14.268855 -4.28674,21.476328 -1.95172,5.00473 -3.97033,10.17684 -4.6062,15.61817 -0.73778,6.29321 4.30195,11.74978 8.74387,16.56437 1.3843,1.49839 2.73056,2.96025 3.80605,4.34456 -4.57273,3.74672 -7.6182,9.47405 -8.28448,15.58015 -1.28388,1.61703 -2.44456,3.35727 -3.45466,5.19946 0,0 0,0 0.003,0.001 -1.48011,-1.14546 -3.0926,-2.09621 -4.80241,-2.834 2.89788,-5.4885 7.03402,-10.62559 12.57729,-14.6005 l -1.67638,-2.33352 c -0.28902,0.20993 -0.74386,0.39551 -1.67484,-0.0122 -4.5575,-1.99429 -10.62254,-13.1082 -10.91005,-15.42348 -0.70585,-5.65887 1.27932,-15.4265 3.49573,-20.653352 l 0.49743,-1.168283 c 5.98289,-14.057435 9.27932,-21.801862 -3.26604,-36.271538 z m 5.24814,14.46663 c 0.66933,2.809653 0.55069,5.508272 -0.10953,8.403116 0.10353,-0.465488 0.19472,-0.924906 0.27382,-1.381266 -12.85873,-2.452163 -26.5115,2.972447 -33.90304,14.699373 -1.77372,2.811182 -3.06218,5.791212 -3.89124,8.844272 0.8747,0.3575 1.78437,0.65715 2.71991,0.92338 0.75605,-2.84161 1.95171,-5.61933 3.60069,-8.23579 6.72523,-10.6682 19.13063,-15.619713 30.83326,-13.427641 -0.89446,3.196041 -2.37005,6.682636 -4.14986,10.856818 l -0.49589,1.166742 c -2.41415,5.680181 -4.4769,15.930041 -3.70413,22.135031 0.40616,3.25536 6.9595,14.89713 12.31717,17.55465 -2.59365,2.25748 -4.84048,4.76746 -6.76934,7.42955 10e-4,0 10e-4,0 10e-4,-0.003 -1.01768,0.0959 -2.04146,0.143 -3.06674,0.13234 1.28389,-4.9439 2.08557,-10.06883 0.53394,-15.56645 -2.15858,-7.65773 -9.44058,-15.58016 -17.31432,-18.8416 -2.47499,-1.02378 -5.09147,-1.614 -7.62122,-2.18141 -5.23446,-1.17589 -10.17836,-2.28789 -13.42918,-7.05838 0.20992,0.30576 0.42746,0.59783 0.64803,0.87317 0.97815,-2.84465 2.28334,-5.623882 3.95514,-8.276854 8.66778,-13.747109 24.44572,-20.34152 39.57102,-18.046025 z m -0.45486,9.752426 c 0.12322,-0.445716 0.23731,-0.88534 0.33771,-1.320422 -0.10044,0.435082 -0.21449,0.874706 -0.33771,1.320422 z m -86.85605,22.396629 c -13.96463,-9.493799 -25.41166,-10.554072 -35.664582,-3.20667 3.332976,-11.743695 7.747502,-19.524643 18.277242,-25.422327 12.70052,-7.108581 29.39268,-5.275528 43.5657,4.781141 5.63759,4.0038 8.12626,8.188626 11.00285,13.033658 1.08919,1.833029 2.21791,3.729988 3.58397,5.731888 3.88363,5.70753 9.62159,6.99752 15.16789,8.24339 2.41568,0.54156 4.91043,1.10288 7.15421,2.03081 7.01276,2.9055 13.74253,10.2027 15.65166,16.96899 1.76307,6.25824 0.0867,12.0251 -1.69007,18.1312 -0.18101,0.62066 -0.36204,1.24741 -0.54001,1.8787 0.003,0 0.003,0 0.003,0 -2.23315,-0.21449 -4.54842,-0.0898 -6.88802,0.42442 0.003,0 0.003,-0.001 0.003,0 0.65412,-1.96387 1.31127,-3.77562 1.73417,-4.94545 0.72257,-1.97755 1.24283,-3.40747 1.43601,-4.24109 2.2453,-9.54858 -2.67579,-18.90246 -11.97034,-22.75109 -2.72599,-1.12722 -5.47328,-1.80719 -8.13081,-2.46739 -4.50428,-1.11658 -8.75756,-2.17078 -12.53928,-5.25424 -3.35728,-2.73664 -5.52348,-6.35253 -7.81592,-10.18294 -2.5465,-4.251739 -5.17666,-8.649537 -9.58662,-11.775608 C 138.30743,80.254855 117.58561,77.96696 105.883,92.672426 l -1.89846,2.386765 3.0485,-0.05784 c 15.36261,-0.279885 34.0521,11.284289 39.99695,24.745389 3.19148,7.22572 2.33505,14.80282 1.43146,22.82869 -0.62675,5.55998 -1.27478,11.31318 -0.46397,16.96138 0.93705,6.51381 7.46301,10.65603 13.21925,14.31301 4.27609,2.71229 8.31336,5.27703 8.66629,7.965 0.0807,0.60695 -0.0335,1.24738 -0.34076,1.92433 -0.29207,0.0214 -0.58262,0.0502 -0.87621,0.0882 -3.24778,0.38029 -6.51075,1.53337 -9.48926,3.38314 1.11656,-1.91517 2.39437,-3.77562 3.85929,-5.5539 l -2.21792,-1.82545 c -0.24643,0.30121 -0.6678,0.62219 -1.74786,0.4579 -5.14165,-0.79255 -14.26126,-10.40351 -15.17399,-12.66554 -2.22855,-5.525 -2.84615,-15.91633 -2.00493,-21.78664 l 0.18861,-1.30976 c 2.26508,-15.74748 3.51095,-24.42138 -12.97128,-35.62807 z m 11.34968,20.84961 c -0.0198,-0.30728 -0.0441,-0.61152 -0.0776,-0.91121 0.0335,0.29969 0.0578,0.60393 0.0776,0.91121 z m -0.12169,-1.34625 c -0.0517,-0.43661 -0.11409,-0.86862 -0.19471,-1.29456 0.0807,0.42594 0.14299,0.85795 0.19471,1.29456 z m 0.13538,1.57138 c 0.1217,2.2164 -0.0183,4.60317 -0.31488,7.26526 -8.71649,1.72504 -16.73474,6.87279 -21.83686,14.96256 -2.35025,3.72694 -3.86384,7.74748 -4.60468,11.83949 -1.15762,-0.94617 -2.44303,-1.87564 -3.90491,-2.77161 -0.81536,-0.49743 -1.63376,-0.96749 -2.45675,-1.41928 0,0.001 10e-4,0.001 0.004,0.001 1.02225,-3.94752 2.65908,-7.80984 4.95001,-11.44096 6.51227,-10.332 16.95074,-16.70584 28.16352,-18.43696 z m -56.679978,59.29645 c -14.568537,-8.53241 -26.062754,-8.82144 -35.801488,-0.80166 2.538905,-11.94145 6.420993,-20.00077 16.532437,-26.59062 12.189391,-7.94827 28.968258,-7.24245 43.784739,1.83913 5.89618,3.61591 8.65717,7.62274 11.85625,12.2624 1.20936,1.757 2.46284,3.57331 3.9597,5.4809 4.25935,5.4307 10.07036,6.33125 15.68816,7.2029 2.4461,0.38031 4.97279,0.76973 7.2759,1.54706 1.90453,0.64195 3.80451,1.60487 5.62237,2.77923 v 0 c -0.45942,0.57807 -0.90816,1.17438 -1.32498,1.80111 -0.67238,1.01007 -1.25652,2.04906 -1.77068,3.1063 0.003,-0.001 0.003,-0.004 0.003,-0.001 -1.35234,-0.83818 -2.82638,-1.54403 -4.42059,-2.08099 -2.79293,-0.9401 -5.57979,-1.43753 -8.27688,-1.91521 -4.56816,-0.81232 -8.88381,-1.579 -12.8648,-4.40082 -3.53373,-2.50392 -5.93725,-5.96617 -8.48069,-9.63227 -2.82792,-4.07224 -5.74863,-8.28142 -10.35938,-11.10933 -14.169996,-8.68303 -34.998293,-9.57445 -45.686259,5.88705 l -1.735709,2.50542 3.039361,-0.25709 c 15.309379,-1.31735 34.733601,8.96446 41.572927,21.99658 3.66764,6.99297 3.32383,14.61267 2.96028,22.6796 -0.25254,5.59042 -0.51112,11.37402 0.67997,16.95531 1.37211,6.43317 8.15974,10.12817 14.15175,13.39115 2.87658,1.56684 5.64212,3.07588 7.38693,4.66553 0.33315,1.70374 0.83212,3.33903 1.48472,4.87698 0,-0.001 -0.001,-0.003 -0.001,-0.005 -0.26773,0.6237 -0.67998,1.27934 -1.24434,1.98821 -1.03442,1.28695 -1.96996,2.67579 -2.80357,4.13464 l 0.003,0.003 c -1.82089,-1.08462 -3.75433,-1.98974 -5.72732,-2.67125 0.003,-10e-4 0.004,0 0.008,10e-4 0.92792,-1.82088 2.00037,-3.60524 3.23406,-5.32573 l -2.33655,-1.6733 c -0.22666,0.31641 -0.62369,0.6693 -1.71135,0.57348 -5.18579,-0.44268 -14.93059,-9.41775 -15.99392,-11.61438 -2.593652,-5.3607 -3.906437,-15.68814 -3.463772,-21.60411 l 0.09895,-1.31734 c 1.198702,-15.86158 1.861952,-24.6024 -15.338286,-34.6758 z m 31.052318,74.50696 c 0.84122,-0.38182 1.66873,-0.79863 2.47803,-1.25347 0.21906,-0.40466 0.44419,-0.80928 0.67845,-1.20936 -0.53698,0.91728 -1.03745,1.84826 -1.50144,2.78836 -0.73168,-0.16885 -1.46491,-0.31338 -2.19053,-0.41378 0.17798,0.0243 0.3575,0.0608 0.53549,0.0882 z m -10.06886,-0.15214 c -4.13919,0.0959 -8.041067,-0.20838 -11.462239,-3.16408 -1.635303,-1.41322 -3.066737,-2.81575 -4.449512,-4.16658 -3.79236,-3.71173 -7.374792,-7.21658 -13.925103,-9.65964 -0.01518,-0.004 -0.03195,-0.0122 -0.04712,-0.0183 -3.877548,-8.63435 -3.507896,-18.99068 1.906069,-27.57939 4.444954,-7.05228 11.436399,-11.54442 19.033267,-13.05191 1.414725,4.74007 1.000959,10.27116 0.433545,17.74481 l -0.09736,1.32042 c -0.480694,6.41187 0.9112,17.21087 3.743669,23.06749 1.274774,2.6393 9.070934,9.84067 15.152704,12.35674 -3.21278,1.67788 -6.70546,2.74272 -10.28789,3.15039 z m -9.381231,-58.91309 c 0.158187,0.41833 0.307276,0.8397 0.435054,1.27019 -0.129298,-0.43049 -0.276867,-0.85186 -0.435054,-1.27019 z m -0.15214,-0.36358 c -0.123219,-0.3012 -0.252506,-0.59934 -0.393975,-0.89293 0.141469,0.29359 0.270756,0.59173 0.393975,0.89293 z m -6.279523,-8.06845 c -0.342266,-0.28141 -0.701251,-0.56284 -1.066337,-0.84578 0.365086,0.28294 0.725613,0.56437 1.066337,0.84578 z m -20.238052,17.66421 c 5.190338,-8.23124 12.989541,-13.83229 21.652767,-16.42443 1.99584,1.86956 3.401435,3.75585 4.382604,5.75165 -8.144512,1.75548 -15.607532,6.64615 -20.39019,14.23239 -5.462637,8.66323 -6.247576,18.96329 -3.040902,27.93383 0.0034,0.001 0.0091,0.004 0.01221,0.004 -2.494775,-0.73169 -4.988021,-1.26262 -7.455414,-1.59119 0.0034,-0.001 0.0057,-0.001 0.0091,-0.001 -2.420229,-9.86347 -1.005511,-20.65488 4.829824,-29.90531 z m 39.240906,161.4558 c -6.73434,-9.38582 -10.838561,-26.37005 -3.93228,-41.47405 l -2.61344,-1.19416 c -0.0913,0.19473 -0.29663,0.65109 -1.37213,0.76669 -4.76591,0.51418 -15.1603,-5.884 -16.511125,-7.68206 -3.301004,-4.40238 -6.322107,-13.53566 -6.968633,-18.97853 l -0.142989,-1.21848 c -1.729606,-14.68415 -2.686457,-22.77085 -20.1757,-28.89825 -14.691764,-5.14775 -25.175907,-3.43184 -32.625229,5.43069 0.219054,-11.12759 2.344188,-19.05155 10.271171,-26.74426 9.647463,-9.36452 24.988764,-11.69651 40.039536,-6.08176 5.981383,2.2316 9.195667,5.37592 12.921108,9.02073 1.414715,1.3858 2.876589,2.81574 4.578811,4.28675 4.872418,4.21068 10.33505,3.99619 15.62122,3.79084 2.28638,-0.0913 4.65032,-0.18409 6.8728,0.11559 6.94428,0.92185 14.67502,5.82773 17.98364,11.40902 3.05305,5.15839 2.92679,10.70773 2.79293,16.58109 -0.0502,2.19359 -0.10353,4.4617 0.0274,6.69786 l 0.0685,1.23369 1.23369,0.11561 c 3.06369,0.2875 5.95855,-0.12169 8.75756,-0.5157 3.15346,-0.44113 6.12738,-0.86099 9.30366,-0.35139 8.51112,1.36299 16.25254,6.13501 21.24512,13.08995 2.36546,3.29492 4.1194,6.95036 5.28466,10.8218 -1.52881,0.88232 -2.87964,1.92434 -4.01598,3.07285 -1.5121,-5.84598 -4.7644,-11.39076 -10.44002,-15.97109 -5.919,-4.7781 -14.30842,-4.04489 -21.70755,-3.39839 -6.20041,0.54461 -12.05401,1.05725 -15.03861,-1.76458 -1.36145,-1.28997 -0.5385,-10.5404 -0.22968,-14.02549 0.17342,-1.94866 0.29814,-3.35728 0.27532,-4.15288 -0.26925,-9.13937 -6.94275,-16.38335 -16.23577,-17.62159 -2.71688,-0.36205 -5.34397,-0.31489 -7.88439,-0.27231 -4.28522,0.0715 -8.336198,0.14451 -12.435824,-1.70526 -3.641761,-1.64442 -6.43468,-4.35825 -9.393419,-7.23634 -3.302535,-3.20822 -6.716112,-6.52596 -11.430317,-8.28449 -14.472711,-5.40027 -33.635291,-2.49628 -40.637403,13.52197 l -1.22,2.7914 2.931353,-0.83664 c 13.652791,-3.90342 33.093762,1.9806 41.603369,12.58945 4.560563,5.68625 5.599542,12.66248 6.697829,20.04792 0.763663,5.13709 1.554695,10.44763 3.634172,15.32459 2.411104,5.65277 9.26715,7.81746 15.31699,9.72656 4.45102,1.40253 8.65259,2.72904 9.58963,5.00628 0.41986,1.01462 0.1993,2.31374 -0.67235,3.97033 -4.40996,8.39247 -4.74465,19.50183 -0.87773,28.98955 2.6119,6.40121 6.81042,11.42271 12.09355,14.58377 -0.19928,0.32553 -0.39552,0.65715 -0.58567,1.00399 -0.67237,1.15611 -1.21543,2.4324 -1.63681,3.78625 -4.02965,-2.29699 -7.55125,-5.45501 -10.36092,-9.36754 z m 14.25825,2.22399 c -4.84504,-2.83706 -8.70585,-7.42499 -11.10782,-13.3166 -3.55809,-8.72257 -3.26603,-18.90397 0.76058,-26.5678 1.29151,-2.45521 1.55013,-4.55144 0.78648,-6.4012 -1.44971,-3.51854 -6.27496,-5.03976 -11.38468,-6.65224 -5.456567,-1.72198 -11.64175,-3.67217 -13.535649,-8.11103 -1.93497,-4.53774 -2.698611,-9.66572 -3.437913,-14.6218 -1.107439,-7.44019 -2.252907,-15.1314 -7.298749,-21.42156 -8.678438,-10.82031 -27.033259,-16.94315 -41.54402,-14.26888 7.187679,-12.02356 23.251583,-13.92507 35.623517,-9.30976 4.149824,1.54706 7.201365,4.51495 10.432401,7.65316 3.005898,2.92071 6.113715,5.94182 10.21486,7.79314 4.685321,2.11295 9.250433,2.03687 13.663433,1.96083 2.43696,-0.041 4.95457,-0.0867 7.45693,0.24644 7.99394,1.06484 13.51741,7.03707 13.74558,14.8591 0.0152,0.62823 -0.11409,2.10382 -0.26619,3.81363 -0.6876,7.72924 -1.07853,14.29321 1.11808,16.36815 3.92164,3.70869 10.40046,3.14127 17.26107,2.54192 7.19375,-0.63129 14.63397,-1.28388 19.65545,2.77012 5.8338,4.7081 8.85339,10.5693 9.93496,16.70887 v 0 c -0.0898,0.15059 -0.17798,0.30728 -0.26317,0.45941 -1.81478,3.30557 -2.23616,6.81803 -1.91822,10.28027 -0.0791,-0.69062 -0.19624,-1.37972 -0.34684,-2.06275 0.17342,-5.309 -0.66477,-11.41814 -4.46777,-15.53604 -3.93077,-4.25934 -8.68911,-6.51985 -14.13653,-6.71457 -4.43583,-0.16125 -10.1677,0.87012 -14.20041,1.76306 -1.22457,0.27231 -2.32895,0.61915 -3.39684,0.95228 -3.27972,1.03289 -5.44742,1.71592 -8.34837,-0.39855 -3.95359,-2.87506 -7.66076,-7.42802 -10.16922,-12.49058 -0.84426,-1.70377 -1.17285,-3.63417 -1.52274,-5.67867 -0.42287,-2.47649 -0.86098,-5.03972 -2.28026,-7.34586 -2.05362,-3.33599 -6.10611,-5.65129 -8.9751,-7.10097 -3.91407,-1.97604 -8.263179,-3.87148 -10.878131,-2.97396 l -1.78587,0.61457 1.069388,1.5562 c 0.730172,1.06483 1.533373,2.01862 2.307676,2.94197 1.656592,1.97302 3.221905,3.83649 3.813659,6.45905 0.293587,1.30975 0.389426,2.66971 0.492865,4.10724 0.156688,2.20575 0.319456,4.48449 1.232173,6.69784 1.77676,4.28828 5.21316,6.88345 8.33923,8.85795 4.57729,2.88877 9.20173,6.15631 12.05248,10.47957 2.4476,3.71021 1.4923,6.47576 0.28143,9.97604 -0.55524,1.61401 -1.13026,3.2782 -1.43753,5.18579 -1.09527,6.83017 -1.89088,16.8823 3.8684,25.29302 0.94772,1.38428 2.73513,3.70716 5.19337,5.71515 0,-0.003 0,0 0,-0.003 -2.4126,0.9827 -4.67007,2.58604 -6.60199,4.92108 z m 23.68511,-16.12017 c -0.61609,-0.23274 -1.23066,-0.49744 -1.83761,-0.8032 -5.63911,-2.77924 -6.84998,-11.53679 -0.76063,-17.19566 6.21108,-5.72429 14.80284,-3.3938 17.10746,2.32134 0.0837,0.22058 0.15516,0.43964 0.22818,0.6587 -6.27495,3.36489 -11.43337,8.65561 -14.7374,15.01882 z m 8.47763,-23.1238 c -3.77103,-0.93706 -8.38789,0.28447 -12.22891,3.46987 -3.66762,3.30861 -5.48244,7.81745 -5.02454,11.72997 0.2951,3.8806 2.67274,7.00969 5.85814,8.73931 0.69977,0.32857 1.40408,0.60695 2.10688,0.85037 -0.032,0.0639 -0.0608,0.1293 -0.0898,0.19319 -1.05115,2.34263 -1.80565,4.75983 -2.28482,7.20441 -0.86708,-0.12931 -1.73873,-0.28905 -2.60582,-0.49136 -7.46606,-1.65354 -13.94638,-8.84121 -12.21831,-19.62045 0.87013,-5.32269 3.96881,-10.76555 8.37878,-14.78761 4.47233,-3.94753 10.19207,-6.49554 15.59384,-6.8515 10.99981,-0.74994 17.37973,6.58225 18.35025,14.10004 0.009,0.0578 0.01,0.11408 0.0168,0.17188 -0.72868,0.14147 -1.45885,0.30273 -2.18294,0.48984 -1.96082,0.50807 -3.85777,1.19567 -5.67257,2.0384 -0.008,-0.0259 -0.0137,-0.0532 -0.0214,-0.0836 -0.0137,-0.0791 -0.0335,-0.16277 -0.0699,-0.25252 -1.39036,-3.41205 -4.16353,-6.13652 -7.90569,-6.90017 z m -11.95664,33.99126 c -0.0168,0.11561 -0.0289,0.23123 -0.0441,0.34989 -0.86405,-0.28751 -1.7433,-0.54308 -2.64386,-0.75455 0.88687,0.17953 1.7859,0.30883 2.68797,0.40466 z m -16.42744,-7.00363 c -3.93993,-5.75621 -5.02302,-13.13251 -3.40142,-23.21657 0.26774,-1.6581 0.80017,-3.20516 1.31585,-4.70203 1.29302,-3.73609 2.6271,-7.60296 -0.59783,-12.49364 -3.14889,-4.7781 -8.06845,-8.26925 -12.91956,-11.32838 -2.87964,-1.81937 -5.75169,-3.99165 -7.21661,-7.5269 -0.73625,-1.78285 -0.87467,-3.73457 -1.02225,-5.80189 -0.10501,-1.48162 -0.21142,-3.015 -0.55676,-4.53773 -0.74386,-3.30253 -2.610381,-5.52652 -4.414511,-7.67598 -0.08067,-0.0944 -0.159718,-0.1871 -0.237307,-0.28143 1.349316,0.394 3.273618,1.16371 6.027008,2.55561 1.47556,0.74541 5.96007,3.01353 7.82658,6.04527 1.12721,1.82849 1.49989,4.00989 1.8939,6.32211 0.36965,2.15707 0.74844,4.38868 1.78283,6.47119 2.70621,5.46264 6.73438,10.39895 11.05155,13.54021 4.07224,2.96331 7.54058,1.87108 10.90094,0.81232 1.01007,-0.31488 2.05208,-0.64497 3.158,-0.88684 3.16561,-0.70279 9.12568,-1.85588 13.4748,-1.69766 4.65487,0.16733 8.73626,2.11599 12.13006,5.78969 1.58965,1.72504 2.55714,3.91405 3.1139,6.26126 -2.39133,-2.95112 -5.93571,-5.2086 -10.82334,-6.12739 -9.46035,-1.91064 -22.4073,4.02204 -28.18177,14.12284 -6.02853,9.79958 -4.49821,20.50732 0.75451,25.86804 2.58604,2.76706 5.82163,4.24261 9.25043,4.99714 -2.28943,-0.46853 -4.65945,-0.55373 -6.9732,-0.16276 0.001,-10e-4 0.001,0 0.004,-10e-4 -3.05456,-1.93497 -5.28008,-4.79484 -6.34036,-6.34495 z m 7.23483,51.02417 c -4.8131,-2.39285 -9.00705,-7.04621 -11.50028,-12.52405 -2.4811,-5.49763 -2.97396,-11.76954 -1.70223,-16.97359 2.81118,-10.64232 11.57787,-14.46206 19.07587,-13.07473 1.04812,0.20536 2.07795,0.45942 3.08501,0.75454 -0.19017,2.6332 -0.0761,5.26942 0.32857,7.85698 -1.0831,-0.17798 -2.20878,-0.29358 -3.35881,-0.32551 -0.0791,-0.0137 -0.16125,-0.0183 -0.25708,-0.0122 -3.66612,0.26469 -7.07969,2.05667 -9.00704,5.37441 -1.96997,3.2645 -2.42023,8.08064 -0.46093,12.71421 1.97604,4.5621 5.77753,7.63948 9.60639,8.41073 3.79997,0.88229 7.45542,-0.36358 10.11752,-2.88571 1.16979,-1.23828 2.14033,-2.57085 2.93742,-3.93383 1.3782,1.43448 2.88268,2.75642 4.51038,3.95511 0.4016,0.29512 0.80926,0.57957 1.21849,0.85339 -0.62676,1.44365 -1.34325,2.87205 -2.17534,4.25328 -3.88057,6.59897 -12.78112,10.49934 -22.41794,5.55695 z m 9.62921,-32.12171 c 1.24281,5.91293 3.9901,11.50639 8.00151,16.13997 -0.76517,1.30974 -1.72655,2.58756 -2.89636,3.75735 -4.38562,4.49971 -13.13253,3.04547 -16.60849,-4.56663 -3.45616,-7.73988 1.25955,-15.1162 7.52692,-15.55734 1.37211,-0.067 2.70468,0.0229 3.97642,0.22665 z m 2.22553,0.53851 c -2.6469,-11.07891 0.96292,-22.95038 9.0207,-30.91233 8.12017,-8.02131 19.95208,-10.96634 30.958,-8.35901 11.83645,2.80356 21.13862,12.66095 23.93913,24.3727 2.76555,11.5672 -1.29301,23.87525 -10.01863,31.84179 -8.64954,7.58776 -20.46625,10.28029 -31.52233,6.99296 -11.13064,-3.30862 -19.69045,-12.71267 -22.37687,-23.93611 z m 86.90927,-9.53945 c 5.29533,9.59877 1.97454,24.8032 -6.65979,31.58166 -8.48224,7.05382 -17.90152,4.89524 -23.13293,-0.63434 -0.76518,-0.82295 -1.48166,-1.67787 -2.14794,-2.55106 0.0776,-0.0684 0.16125,-0.13387 0.24186,-0.20537 1.85282,-1.68853 3.49422,-3.54286 4.92567,-5.51739 0.58414,0.54763 1.19719,1.07855 1.85129,1.58207 0.0517,0.0502 0.11101,0.0974 0.17952,0.14147 3.19754,1.98365 6.90626,2.4841 10.45825,0.9401 3.51853,-1.48623 6.70243,-5.13255 7.81138,-10.02168 1.21542,-4.82524 -0.2799,-9.54706 -2.77163,-12.43126 -2.67275,-2.94048 -6.22932,-4.10268 -9.87564,-3.62502 -0.32706,0.0593 -0.64501,0.13081 -0.96292,0.20838 -0.18103,-2.75642 -0.71648,-5.45807 -1.5623,-8.05322 0.0853,-0.0379 0.16583,-0.0745 0.251,-0.11409 7.07816,-3.06979 16.41986,-0.98574 21.39418,8.69975 z m -4.59705,-8.97357 c 0.28599,0.0639 0.57045,0.13538 0.85187,0.22208 4.77962,1.47711 8.29815,4.32023 10.45674,8.45029 2.0156,3.85473 3.54441,9.73112 4.27459,12.88762 0.25555,1.1044 0.41072,2.18597 0.55827,3.23409 0.49438,3.48354 1.00704,7.08727 5.43526,9.48317 4.69595,2.54193 10.88419,4.05094 16.97966,4.13918 2.32743,0.0335 4.50274,-0.58567 6.60962,-1.18351 2.25441,-0.64041 4.37954,-1.24432 6.52139,-1.01614 3.53984,0.37878 7.5193,3.44704 8.82751,4.4571 2.44308,1.88327 3.96732,3.29036 4.90438,4.33697 -0.11866,-0.0305 -0.23883,-0.0608 -0.36052,-0.0928 -2.71536,-0.70126 -5.52503,-1.42535 -8.82754,-0.67692 -1.51968,0.34834 -2.95114,0.91272 -4.33542,1.45579 -1.92584,0.75907 -3.74672,1.47405 -5.6741,1.57901 -3.82125,0.2008 -7.01729,-1.45275 -9.90303,-3.2706 -4.84805,-3.05607 -10.11902,-5.99047 -15.78854,-6.77239 -5.80339,-0.80165 -8.71496,2.06885 -11.53376,4.84504 -1.12568,1.11352 -2.29396,2.25899 -3.67521,3.21734 -8.4016,5.80642 -15.52235,8.01063 -22.41187,6.93669 -1.14242,-0.17798 -2.92376,-0.54157 -4.83742,-1.24131 -0.004,-0.0395 -0.008,-0.0807 -0.0152,-0.12169 -0.44419,-3.7239 -2.18141,-6.81346 -4.50579,-9.43904 4.78569,5.2299 12.29435,8.06846 20.9652,3.97794 8.88534,-3.946 15.73074,-16.43963 14.5579,-28.00229 -0.645,-7.83571 -4.40998,-13.92965 -9.07398,-17.40559 z m -26.75491,41.08917 c -0.7393,-0.80776 -1.53639,-1.56988 -2.36241,-2.29243 0.12626,-0.0959 0.24946,-0.19168 0.37421,-0.28601 0.61303,0.88232 1.27171,1.74786 1.9882,2.57844 z m 11.32841,-30.72978 c 0.29814,-0.0654 0.59783,-0.12475 0.90359,-0.17341 6.26278,-1.0603 12.33238,5.27552 10.74118,13.44283 -1.62007,8.31946 -9.95472,11.46076 -15.20136,8.17648 -0.78495,-0.50962 -1.50599,-1.06638 -2.17074,-1.65052 3.79082,-5.82773 5.78817,-12.64877 5.72733,-19.79538 z m -23.82509,33.73873 c 0.87471,1.04051 1.67484,2.21182 2.34114,3.51244 2.93746,5.57673 -1.20023,13.43526 -9.48925,14.35865 -8.40159,0.94162 -13.95094,-5.88403 -12.45408,-11.94752 0.45939,-1.70527 1.13328,-3.26147 1.93953,-4.64729 5.87337,1.07094 11.98249,0.61306 17.66266,-1.27628 z m -30.83322,1.40712 c 0.77582,-1.37061 1.42231,-2.8188 1.98667,-4.29132 0.25557,0.15212 0.51419,0.2951 0.77432,0.44268 -0.98729,1.19868 -1.92584,2.46891 -2.76099,3.84864 z m 40.2449,19.90492 c -7.5619,7.97719 -23.03708,9.56076 -32.09735,3.4151 -9.27019,-5.92052 -10.23009,-15.44781 -6.56398,-22.17608 0.81991,-1.47558 1.75089,-2.86137 2.73511,-4.17267 2.27875,1.11506 4.65488,1.96084 7.08879,2.53434 -0.75145,1.28845 -1.41623,2.68948 -1.94561,4.19395 -0.035,0.067 -0.067,0.1445 -0.0867,0.2312 -0.89295,3.63874 -0.19773,7.24701 2.34113,10.2316 2.50542,2.78686 6.93212,4.82528 11.92776,4.31718 4.95152,-0.37422 9.03137,-3.13822 10.98154,-6.48639 2.00799,-3.39533 1.98061,-7.18312 0.38791,-10.52519 -0.70585,-1.28848 -1.52119,-2.45676 -2.40351,-3.51552 2.3959,-0.93856 4.70356,-2.13727 6.86672,-3.59306 0.83665,0.78799 1.64289,1.614 2.40501,2.49477 5.07779,5.74558 6.0985,15.35043 -1.63681,23.05077 z m 7.99088,-11.35882 c 1.71897,0.54764 3.26146,0.85493 4.31716,1.01769 10.06429,1.5714 18.79447,-3.479 24.48681,-7.41283 1.58661,-1.09677 2.84463,-2.33351 4.05553,-3.53223 2.64079,-2.5982 4.72484,-4.65334 9.12721,-4.04639 5.131,0.70737 10.07187,3.47443 14.64917,6.36014 3.1291,1.96997 6.95339,3.95207 11.58852,3.70565 2.39132,-0.12778 4.51796,-0.96443 6.57463,-1.77371 1.34322,-0.52786 2.60885,-1.02985 3.91859,-1.32801 2.62258,-0.5948 4.97739,0.0137 7.47217,0.65868 1.16828,0.3012 2.37459,0.61303 3.64934,0.81232 l 1.86651,0.29512 -0.2175,-1.87565 c -0.31489,-2.74883 -3.90189,-5.85511 -7.37177,-8.53242 -2.54495,-1.96541 -6.37838,-4.62293 -10.27569,-5.03973 -2.69254,-0.286 -5.19339,0.4244 -7.61058,1.1074 -1.99582,0.56895 -3.87756,1.10289 -5.78209,1.07551 -5.64975,-0.0807 -11.35425,-1.46341 -15.65468,-3.78931 -3.15651,-1.70983 -3.47596,-3.95818 -3.95819,-7.36414 -0.15667,-1.10745 -0.31946,-2.25291 -0.60241,-3.47596 -0.93097,-4.02205 -2.47347,-9.64136 -4.53011,-13.57518 -2.52824,-4.82984 -6.61571,-8.14759 -12.15137,-9.86044 -2.4674,-0.76364 -5.04583,-0.77431 -7.56952,-0.32553 -0.29813,-0.0761 -0.59477,-0.143 -0.8914,-0.19472 -3.65241,-0.71955 -7.08423,-0.0502 -10.26354,1.30975 0.35443,-0.15366 0.71648,-0.29358 1.07851,-0.42747 7.95742,-4.83436 17.68702,-6.78911 27.79998,-1.95625 5.8201,2.7838 8.44116,9.77981 10.97241,16.54153 2.41415,6.45294 4.69596,12.5408 9.73115,14.48033 2.8203,1.08767 8.57501,-2.0947 15.25003,-6.04678 1.4771,-0.87316 2.75491,-1.62767 3.3284,-1.88323 7.15726,-3.16413 14.92756,-0.75454 19.3299,5.99658 1.38277,2.1175 2.42633,4.40844 3.43945,6.62179 1.83457,4.01748 3.72998,8.17188 7.65924,11.48659 3.43639,2.90245 7.50409,4.4054 11.43639,5.85813 4.22286,1.56075 8.21602,3.03786 11.40141,6.11221 9.4984,9.17741 14.7085,24.49133 6.95648,36.15897 -3.84256,-14.24454 -17.28088,-28.1681 -30.78306,-31.33678 -7.85243,-1.84064 -15.28806,0.44117 -22.47574,2.64689 -4.79333,1.47102 -9.74635,2.99373 -14.67655,3.20365 -4.81917,0.20537 -9.24587,-4.53468 -13.15385,-8.71799 -3.65696,-3.91407 -7.10857,-7.61362 -10.90853,-7.40369 -2.00037,0.10804 -3.77717,1.24282 -5.43832,3.4668 -5.17814,6.93518 -14.23844,11.58854 -23.64403,12.14074 -5.46871,0.31791 -10.52824,-0.75605 -14.79522,-3.06675 l -0.003,0.004 c 1.56988,-2.64537 2.46586,-5.4383 2.66971,-8.09432 z m 143.68056,33.89237 c -3.52462,10.46741 -9.76307,15.80376 -19.70716,20.79788 4.78722,-10.5404 1.81326,-20.74312 -9.16221,-31.77942 -13.06865,-13.14319 -20.7781,-10.51607 -34.77162,-5.74864 l -1.16068,0.39401 c -5.19035,1.76307 -14.73286,2.97393 -20.12703,1.89236 -2.20574,-0.44113 -12.46016,-7.06447 -14.04981,-11.58546 -0.35901,-1.01922 -0.0395,-1.40257 0.099,-1.56685 l -2.20423,-1.84216 c -10.65295,12.74005 -27.74519,16.35596 -39.1177,14.32515 -4.20154,-0.75147 -8.10799,-2.26508 -11.59611,-4.44192 1.46491,-1.18654 2.74119,-2.48867 3.8167,-3.86081 4.78722,2.66212 10.47042,3.90645 16.59783,3.54747 10.22855,-0.59938 20.10724,-5.69237 25.77828,-13.2862 1.12112,-1.50294 2.19662,-2.2605 3.2934,-2.31983 2.45978,-0.13691 5.4672,3.08651 8.65413,6.49552 4.32629,4.63512 9.2352,9.89088 15.37478,9.62771 5.29834,-0.22514 10.42937,-1.80263 15.39305,-3.32537 7.14051,-2.19203 13.88248,-4.26087 20.97887,-2.59669 13.24057,3.10479 26.92832,18.10993 29.29228,32.1141 l 0.50655,3.00591 1.99582,-2.30615 c 11.43487,-13.22381 5.79578,-31.76574 -5.31812,-42.49783 -3.61437,-3.49723 -8.08063,-5.14621 -12.40083,-6.74195 -3.86843,-1.42993 -7.52388,-2.78229 -10.57541,-5.35919 -3.43791,-2.90094 -5.11882,-6.58528 -6.90169,-10.48414 -1.0557,-2.30919 -2.14794,-4.70052 -3.64479,-6.99601 -5.12037,-7.85243 -14.53509,-10.75336 -22.89714,-7.05533 -0.72865,0.32251 -1.9456,1.04356 -3.62957,2.03993 -3.01199,1.78134 -11.00438,6.51076 -12.75377,5.83684 -3.83343,-1.47706 -5.89465,-6.97774 -8.07606,-12.80547 -2.60429,-6.95949 -5.55847,-14.84541 -12.42366,-18.12664 -7.88135,-3.76954 -15.51626,-3.81061 -22.37536,-1.65962 0.99336,-1.58205 1.73723,-3.37706 2.15858,-5.38659 v 0 c 4.75072,-1.02376 9.61552,-1.18654 14.39211,-0.33315 8.42593,1.506 16.06997,6.43775 20.96978,13.52807 1.82544,2.64535 2.73359,5.5113 3.69042,8.54459 0.85187,2.6986 1.73114,5.48546 3.31165,8.12778 l 0.63434,1.06027 1.14243,-0.46851 c 2.07491,-0.84884 4.09812,-1.87263 6.05744,-2.86292 5.24358,-2.64993 10.19509,-5.15839 16.16428,-4.62444 6.4651,0.57806 14.2202,5.43676 18.04753,11.30555 1.22609,1.8787 2.16469,4.05098 3.06828,6.15175 2.08859,4.86024 4.25328,9.88174 10.15097,12.46169 2.06274,0.90359 3.98252,1.6064 5.83991,2.28485 4.89368,1.7874 9.1211,3.33446 13.71363,7.77029 11.55197,11.15955 16.06234,26.00798 11.77103,38.74957 z m -42.87812,-70.05135 c 0.25555,0.3514 0.50809,0.70585 0.7393,1.06182 -0.51721,-0.79559 -1.10135,-1.56988 -1.73112,-2.32288 0,0 0,0 0.003,0.001 0.3666,-0.4731 0.72561,-0.95988 1.07548,-1.45123 -0.067,0.90359 -0.0944,1.81023 -0.0867,2.71079 z m 56.77279,15.39002 c -5.39117,8.54764 -14.51077,13.34244 -23.92699,13.61019 -4.93325,-4.67163 -9.56531,-6.37385 -14.4636,-8.16581 -1.81784,-0.66476 -3.69804,-1.35083 -5.67559,-2.21791 -4.86024,-2.12664 -6.71156,-6.421 -8.66629,-10.96635 -0.0928,-0.21146 -0.18409,-0.42442 -0.27688,-0.6389 0.01,0.0214 0.0198,0.0441 0.0289,0.0654 -0.69519,-2.70772 -1.00551,-5.50978 -0.90817,-8.31945 4.93175,4.35977 14.65679,8.22361 17.56228,8.23882 6.50923,0.032 16.85188,-3.36945 22.43013,-6.56397 l 1.1485,-0.65867 c 6.54119,-3.75739 11.37405,-6.52596 16.29818,-7.27137 1.9441,7.52844 0.91118,15.80987 -3.55048,22.88803 z m 3.55505,-22.88802 c 0.95681,-0.14604 1.91973,-0.21143 2.8994,-0.19469 -0.97967,-0.0168 -1.94259,0.0487 -2.8994,0.19469 z m -20.159,45.18275 c -1.37515,-2.07037 -2.94503,-4.07836 -4.6944,-6.00114 0.003,0.003 0.003,0.004 0.005,0.005 9.41016,-1.02072 18.29093,-6.15478 23.72163,-14.76782 4.8009,-7.61362 5.98744,-16.48832 4.03117,-24.61457 2.22704,0.0411 4.53927,0.5172 7.09641,1.52728 1.40559,8.94467 -0.28599,18.40807 -5.47938,26.64843 -5.79121,9.17892 -14.82411,15.09184 -24.6815,17.20174 z m 32.6359,-42.73968 c 0.0198,0.01 0.041,0.0214 0.0624,0.0305 -0.0214,-0.01 -0.0425,-0.0214 -0.0624,-0.0305 z m 40.71494,6.81041 c -1.58659,11.96122 -7.1907,18.93897 -16.87011,26.37613 3.04239,-12.24264 -2.17228,-22.48945 -16.15517,-31.95894 -16.50353,-11.17627 -24.10344,-6.81345 -37.89771,1.10896 l -1.14849,0.65717 c -5.14472,2.9496 -15.03102,6.21409 -20.985,6.1852 -2.44305,-0.0122 -14.74045,-4.93783 -17.37517,-9.42385 -0.5537,-0.9401 -0.4092,-1.45274 -0.2221,-1.79199 l -2.51454,-1.3858 c -0.99789,1.8087 -2.11597,3.50637 -3.3223,5.09601 10e-4,0.004 0.008,0.0106 0.0106,0.0137 -1.50143,-1.45579 -3.18387,-2.77923 -4.96673,-3.9186 h 0.001 c 0.95835,-1.37668 1.80262,-2.81574 2.51606,-4.29891 0.2221,-0.45941 0.45028,-0.87013 0.68759,-1.23066 2.27419,0.0365 4.60924,-0.25862 6.91691,-0.89903 l -0.004,0.003 c 1.87108,0.98877 3.94752,2.49019 6.08786,4.0403 5.52348,3.99771 11.78474,8.53089 18.18443,6.99601 5.54783,-1.33106 10.65299,-4.05856 15.58928,-6.69632 7.12379,-3.80454 13.84904,-7.39761 21.74102,-7.10097 14.70545,0.54763 32.35748,13.64668 37.76992,28.02813 l 1.07399,2.85225 1.51511,-2.64535 c 9.34322,-16.30731 -0.4366,-34.71991 -14.38603,-43.76196 -4.53317,-2.94047 -9.59115,-3.76193 -14.48488,-4.55903 -4.40539,-0.71496 -8.56435,-1.39037 -12.34607,-3.49876 -4.26391,-2.37612 -6.81803,-5.93877 -9.51663,-9.71287 -1.59422,-2.22401 -3.24168,-4.52711 -5.29683,-6.64461 -0.85034,-0.87621 -1.75699,-1.66269 -2.70317,-2.35483 0,0 0,0 0,0.001 0.74538,-0.9325 1.4421,-1.92127 2.07339,-2.98309 0.38183,-0.63891 0.72411,-1.2915 1.04507,-1.94712 1.41321,0.95682 2.71078,2.01407 3.82582,3.16257 1.69463,1.74483 3.13976,3.85777 4.5332,5.89921 3.20668,4.69444 6.52443,9.54709 13.26333,11.05154 2.36396,0.52939 4.54386,0.8747 6.65224,1.21089 5.56454,0.88686 10.37002,1.6505 16.17188,5.41395 14.58529,9.45275 22.45143,24.28903 20.53624,38.71612 z m -8.32704,-48.84883 c -2.29093,3.63568 -5.07321,6.77695 -8.19777,9.40559 -0.7971,-0.57653 -1.6064,-1.1409 -2.44761,-1.68548 -1.39341,-0.90361 -2.73816,-1.64139 -4.04942,-2.26355 3.36639,-2.4324 6.3358,-5.52501 8.68453,-9.2474 5.12493,-8.13234 6.3008,-17.64137 4.054,-26.28333 2.27117,-1.41016 4.36431,-2.56018 6.41794,-3.39683 3.31317,10.89181 2.07493,23.10553 -4.46167,33.471 z m 4.68378,-33.56227 c 0.27687,-0.10804 0.55068,-0.20993 0.82601,-0.30728 -0.27533,0.0974 -0.54914,0.19926 -0.82601,0.30728 z m 1.25955,-0.45942 c 0.4168,-0.13843 0.83058,-0.26619 1.24587,-0.37421 -0.41529,0.10804 -0.82907,0.23579 -1.24587,0.37421 z m -15.38999,5.40787 -1.1044,0.73475 c -4.9348,3.28884 -14.57615,7.21049 -20.52101,7.58014 -2.43696,0.15214 -15.03708,-3.93229 -17.96844,-8.23275 -0.61608,-0.90053 -0.50655,-1.4223 -0.34226,-1.77218 l -2.60281,-1.21391 c -0.62521,1.34474 -1.32038,2.63014 -2.06576,3.86841 v 0.001 c 0.005,-2.5678 -0.39248,-5.07017 -1.17741,-7.38088 -0.23275,-0.7104 -0.50811,-1.39798 -0.81386,-2.06883 0.30274,-0.23883 0.6237,-0.41986 0.96446,-0.53243 2.57689,-0.83666 6.62938,1.6992 10.92373,4.38716 5.77906,3.62046 12.33086,7.72009 18.61038,5.75773 5.44894,-1.70069 10.35788,-4.76286 15.10554,-7.72769 6.85151,-4.27762 13.3227,-8.31641 21.2162,-8.55068 14.70848,-0.43963 33.19873,11.44249 39.56804,25.42385 l 1.26413,2.77619 1.33404,-2.7412 c 8.22361,-16.89903 -2.77318,-34.61039 -17.29754,-42.6971 -4.72036,-2.62712 -9.82248,-3.10781 -14.75723,-3.57179 -4.44191,-0.41831 -8.6389,-0.81232 -12.55599,-2.6621 -4.41149,-2.08252 -7.19836,-5.46719 -10.14644,-9.04962 -1.73873,-2.11295 -3.54135,-4.29891 -5.73189,-6.27191 -7.47669,-6.72829 -18.04144,-7.13902 -25.69155,-0.99791 -0.6663,0.53545 -1.72962,1.62007 -3.2067,3.12454 -0.6876,0.70128 -1.67636,1.7068 -2.79599,2.80509 -0.66628,-2.21942 -1.64135,-4.24871 -2.87658,-6.06046 10e-4,10e-4 0.004,0 0.004,0 0.27686,-0.24339 0.55675,-0.48983 0.83208,-0.73778 4.74615,-4.23199 9.22915,-8.23275 15.63491,-9.34018 6.92756,-1.19415 16.41073,1.73265 22.0544,6.80738 1.80719,1.62616 3.3862,3.63719 4.91651,5.57976 3.51552,4.46776 7.15271,9.09071 13.97987,10.13576 2.39434,0.37119 4.59103,0.56894 6.71457,0.76213 5.61474,0.50809 10.46129,0.94772 16.5051,4.30957 15.18151,8.45332 24.03194,22.7298 23.08875,37.24967 -0.77888,12.04335 -5.89618,19.38163 -15.0584,27.45313 2.21335,-12.42061 -3.67827,-22.29321 -18.26652,-30.8013 -17.21701,-10.04297 -24.50661,-5.17665 -37.7365,3.65393" />
   
   
   </svg>
